<?xml version="1.0" encoding="iso-8859-1"?>
<!-- Generator: Adobe Illustrator 26.0.1, SVG Export Plug-In . SVG Version: 6.00 Build 0)  -->
<svg version="1.1" id="Layer_1" xmlns="http://www.w3.org/2000/svg" xmlns:xlink="http://www.w3.org/1999/xlink" x="0px" y="0px"
	 viewBox="0 0 1000 1000" style="enable-background:new 0 0 1000 1000;" xml:space="preserve">
<g id="watermark_1_">
	<g>
		<g id="watermark" style="opacity:0.61;">
			<g>
				<g>
					<g>
						<g>
							<polygon style="fill:#FFFFFF;" points="421.112,924.528 409.007,952.493 402.615,952.493 390.55,924.528 397.541,924.528 
								406.051,944.503 414.68,924.528 							"/>
						</g>
						<g>
							<path style="fill:#FFFFFF;" d="M442.323,943.185h-16.26c0.599,2.677,2.876,4.315,6.153,4.315
								c2.277,0,3.915-0.679,5.393-2.077l3.316,3.595c-1.997,2.278-4.994,3.476-8.868,3.476c-7.431,0-12.265-4.674-12.265-11.067
								c0-6.432,4.914-11.066,11.466-11.066c6.312,0,11.186,4.235,11.186,11.146C442.443,941.987,442.363,942.666,442.323,943.185
								 M425.983,939.55h10.587c-0.44-2.717-2.478-4.475-5.274-4.475C428.46,935.075,426.422,936.793,425.983,939.55"/>
						</g>
						<g>
							<path style="fill:#FFFFFF;" d="M444.997,941.427c0-6.471,4.994-11.066,11.985-11.066c4.514,0,8.07,1.958,9.628,5.473
								l-4.834,2.597c-1.159-2.038-2.877-2.956-4.834-2.956c-3.156,0-5.633,2.198-5.633,5.952c0,3.756,2.477,5.953,5.633,5.953
								c1.958,0,3.675-0.879,4.834-2.956l4.834,2.637c-1.558,3.436-5.114,5.433-9.628,5.433
								C449.991,952.493,444.997,947.899,444.997,941.427"/>
						</g>
						<g>
							<path style="fill:#FFFFFF;" d="M484.386,951.135c-1.279,0.919-3.157,1.358-5.074,1.358c-5.073,0-8.03-2.597-8.03-7.711
								v-8.829h-3.316v-4.794h3.316v-5.233h6.232v5.233h5.353v4.794h-5.353v8.749c0,1.837,0.998,2.836,2.677,2.836
								c0.918,0,1.837-0.279,2.517-0.799L484.386,951.135z"/>
						</g>
					</g>
					<g>
						<path style="fill:#FFFFFF;" d="M527.157,930.68v5.753c-0.519-0.04-0.918-0.08-1.398-0.08c-3.435,0-5.713,1.877-5.713,5.993
							v10.147h-6.232V931h5.953v2.836C521.284,931.759,523.841,930.68,527.157,930.68"/>
					</g>
					<g>
						<path style="fill:#FFFFFF;" d="M528.954,949.257l2.197-4.874c2.357,1.718,5.873,2.916,9.229,2.916
							c3.836,0,5.393-1.278,5.393-2.996c0-5.233-16.26-1.638-16.26-12.025c0-4.754,3.835-8.709,11.785-8.709
							c3.516,0,7.112,0.839,9.708,2.477l-1.998,4.914c-2.597-1.478-5.273-2.197-7.75-2.197c-3.835,0-5.313,1.438-5.313,3.196
							c0,5.154,16.259,1.598,16.259,11.865c0,4.675-3.875,8.67-11.865,8.67C535.905,952.493,531.43,951.175,528.954,949.257"/>
					</g>
					<g>
						<path style="fill:#FFFFFF;" d="M577.131,943.185h-16.26c0.599,2.677,2.876,4.315,6.153,4.315c2.277,0,3.915-0.679,5.393-2.077
							l3.316,3.595c-1.998,2.278-4.994,3.476-8.869,3.476c-7.431,0-12.265-4.674-12.265-11.067c0-6.432,4.914-11.066,11.466-11.066
							c6.312,0,11.187,4.235,11.187,11.146C577.251,941.987,577.171,942.666,577.131,943.185 M560.791,939.55h10.587
							c-0.439-2.717-2.477-4.475-5.273-4.475C563.268,935.075,561.231,936.793,560.791,939.55"/>
					</g>
					<g>
						<path style="fill:#FFFFFF;" d="M602.337,943.185h-16.26c0.599,2.677,2.876,4.315,6.152,4.315c2.277,0,3.915-0.679,5.393-2.077
							l3.316,3.595c-1.998,2.278-4.994,3.476-8.869,3.476c-7.431,0-12.265-4.674-12.265-11.067c0-6.432,4.914-11.066,11.466-11.066
							c6.312,0,11.186,4.235,11.186,11.146C602.457,941.987,602.377,942.666,602.337,943.185 M585.997,939.55h10.587
							c-0.439-2.717-2.477-4.475-5.273-4.475C588.474,935.075,586.437,936.793,585.997,939.55"/>
					</g>
					<g>
						<polygon style="fill:#FFFFFF;" points="615.838,944.064 612.841,947.02 612.841,952.493 606.61,952.493 606.61,922.85 
							612.841,922.85 612.841,939.629 621.95,931 629.381,931 620.432,940.108 630.18,952.493 622.63,952.493 						"/>
					</g>
					<g>
						<path style="fill:#FFFFFF;" d="M514.371,955.416L514.371,955.416l-6.226-6.226c-0.947,1.107-2.075,2.054-3.339,2.796
							c-0.201,0.15-0.406,0.296-0.616,0.433l6.589,6.589c0.992,0.992,2.601,0.992,3.592,0
							C515.363,958.017,515.363,956.408,514.371,955.416"/>
					</g>
					<g>
						<path style="fill:#FFFFFF;" d="M499.965,929.04c0.48-0.377,1.077-0.612,1.735-0.612c0.091,0,0.181,0.005,0.27,0.013
							c-0.466-0.34-1.041-0.542-1.663-0.542c-0.859,0-1.619,0.392-2.137,0.998c-0.111,0-0.218,0.013-0.328,0.016
							c0.086-0.167,0.139-0.354,0.139-0.555c0-0.509-0.311-0.945-0.752-1.13c0.19,0.275,0.301,0.608,0.301,0.968
							c0,0.267-0.066,0.517-0.176,0.742c-6.119,0.437-10.95,5.527-10.95,11.757c0,6.516,5.283,11.799,11.799,11.799
							c6.517,0,11.8-5.283,11.8-11.799C510.004,934.777,505.644,929.892,499.965,929.04 M495.61,932.114
							c0.947,0,1.837,0.244,2.611,0.674c0.813-0.532,1.785-0.842,2.828-0.842c1.547,0,2.934,0.68,3.883,1.756
							c-0.948-0.826-2.186-1.328-3.541-1.328c-0.977,0-1.895,0.261-2.686,0.716c-0.172,0.1-0.34,0.208-0.499,0.326
							c-0.142-0.104-0.29-0.203-0.444-0.292c-0.803-0.476-1.741-0.749-2.743-0.749c-0.653,0-1.279,0.117-1.86,0.331
							C493.895,932.328,494.727,932.114,495.61,932.114 M503.858,941.785c0.25,0.664,0.394,1.38,0.394,2.131
							c0,3.34-2.707,6.047-6.047,6.047c-3.339,0-6.047-2.707-6.047-6.047c0-0.751,0.143-1.467,0.394-2.131
							c-1.35-0.831-2.253-2.317-2.253-4.019c0-2.607,2.114-4.72,4.72-4.72c1.23,0,2.346,0.474,3.186,1.244
							c0.84-0.77,1.956-1.244,3.186-1.244c2.607,0,4.72,2.113,4.72,4.72C506.111,939.467,505.208,940.954,503.858,941.785"/>
					</g>
					<g>
						<path style="fill:#FFFFFF;" d="M503.627,937.351c0,1.082-0.879,1.961-1.961,1.961c-1.082,0-1.961-0.879-1.961-1.961
							s0.879-1.961,1.961-1.961c0.22,0,0.428,0.037,0.625,0.102c-0.065,0.135-0.099,0.287-0.099,0.445
							c0,0.595,0.482,1.076,1.077,1.076c0.11,0,0.217-0.017,0.318-0.048C503.613,937.089,503.627,937.218,503.627,937.351"/>
					</g>
					<g>
						<path style="fill:#FFFFFF;" d="M496.201,937.351c0,0.818-0.665,1.482-1.483,1.482c-0.818,0-1.483-0.664-1.483-1.482
							s0.665-1.483,1.483-1.483c0.166,0,0.324,0.027,0.473,0.077c-0.049,0.102-0.075,0.217-0.075,0.337
							c0,0.449,0.364,0.814,0.814,0.814c0.083,0,0.164-0.013,0.241-0.036C496.191,937.153,496.201,937.251,496.201,937.351"/>
					</g>
					<g>
						<g>
							<g>
								<rect x="484.56" y="939.024" style="fill:#FFFFFF;" width="1.34" height="1.34"/>
							</g>
							<g>
								<rect x="510.51" y="939.024" style="fill:#FFFFFF;" width="1.34" height="1.34"/>
							</g>
							<g>
								<path style="fill:#FFFFFF;" d="M511.332,939.572h-0.304c0-7.07-5.752-12.823-12.823-12.823
									c-7.07,0-12.823,5.753-12.823,12.823h-0.305c0-3.506,1.365-6.803,3.845-9.282c2.479-2.48,5.776-3.845,9.282-3.845
									c3.507,0,6.803,1.365,9.283,3.845C509.966,932.769,511.332,936.065,511.332,939.572"/>
							</g>
						</g>
						<g>
							<rect x="497.534" y="925.927" style="fill:#FFFFFF;" width="1.34" height="1.34"/>
						</g>
						<g>
							<rect x="489.006" y="926.445" style="fill:#FFFFFF;" width="18.397" height="0.304"/>
						</g>
						<g>
							<path style="fill:#FFFFFF;" d="M489.494,926.658c0,0.235-0.191,0.427-0.427,0.427c-0.235,0-0.426-0.191-0.426-0.427
								s0.191-0.427,0.426-0.427C489.303,926.231,489.494,926.422,489.494,926.658"/>
						</g>
						<g>
							<path style="fill:#FFFFFF;" d="M507.829,926.658c0,0.235-0.191,0.427-0.427,0.427c-0.235,0-0.426-0.191-0.426-0.427
								s0.191-0.427,0.426-0.427C507.639,926.231,507.829,926.422,507.829,926.658"/>
						</g>
					</g>
				</g>
				<g>
					<path style="fill:#FFFFFF;" d="M640.109,951.171c0,3.395-5.146,3.395-5.146,0C634.963,947.779,640.109,947.779,640.109,951.171
						z"/>
				</g>
				<g>
					<g>
						<g>
							<path style="fill:#FFFFFF;" d="M307.849,936.236l3.859,13.253l4.038-13.253h4.823l-6.145,17.721h-5.073l-1.822-5.216
								l-1.572-5.896l-1.571,5.896l-1.822,5.216h-5.073l-6.18-17.721h4.858l4.038,13.253l3.822-13.253H307.849z"/>
						</g>
						<g>
							<path style="fill:#FFFFFF;" d="M340.449,936.236l3.859,13.253l4.038-13.253h4.823l-6.145,17.721h-5.073l-1.822-5.216
								l-1.571-5.896l-1.572,5.896l-1.822,5.216h-5.073l-6.18-17.721h4.858l4.038,13.253l3.822-13.253H340.449z"/>
						</g>
						<g>
							<path style="fill:#FFFFFF;" d="M373.048,936.236l3.859,13.253l4.038-13.253h4.823l-6.145,17.721h-5.073l-1.822-5.216
								l-1.572-5.896l-1.571,5.896l-1.822,5.216h-5.073l-6.18-17.721h4.858l4.038,13.253l3.822-13.253H373.048z"/>
						</g>
					</g>
					<g>
						<path style="fill:#FFFFFF;" d="M393.123,951.412c0,3.395-5.146,3.395-5.146,0C387.977,948.02,393.123,948.02,393.123,951.412z
							"/>
					</g>
					<g>
						<path style="fill:#FFFFFF;" d="M658.296,951.171c-2.036,2.001-4.177,2.787-6.787,2.787c-5.108,0-9.361-3.072-9.361-9.323
							c0-6.251,4.253-9.326,9.361-9.326c2.502,0,4.43,0.716,6.359,2.609l-2.752,2.894c-1.036-0.931-2.321-1.393-3.534-1.393
							c-2.929,0-5.073,2.144-5.073,5.216c0,3.357,2.286,5.143,5,5.143c1.393,0,2.787-0.393,3.857-1.463L658.296,951.171z"/>
					</g>
					<g>
						<path style="fill:#FFFFFF;" d="M678.097,944.777c0,5.073-3.465,9.181-9.181,9.181c-5.716,0-9.146-4.107-9.146-9.181
							c0-5.038,3.502-9.181,9.111-9.181S678.097,939.739,678.097,944.777z M664.128,944.777c0,2.679,1.609,5.181,4.788,5.181
							c3.179,0,4.788-2.502,4.788-5.181c0-2.644-1.859-5.216-4.788-5.216C665.772,939.561,664.128,942.133,664.128,944.777z"/>
					</g>
					<g>
						<path style="fill:#FFFFFF;" d="M692.828,953.958v-9.431c0-2.324-1.216-4.43-3.61-4.43c-2.356,0-3.75,2.106-3.75,4.43v9.431
							h-4.36v-17.649h4.038l0.323,2.144c0.928-1.786,2.964-2.429,4.643-2.429c2.109,0,4.218,0.858,5.216,3.287
							c1.574-2.502,3.61-3.217,5.896-3.217c5,0,7.467,3.075,7.467,8.36v9.504h-4.361v-9.504c0-2.321-0.963-4.288-3.322-4.288
							c-2.356,0-3.822,2.036-3.822,4.36v9.431H692.828z"/>
					</g>
				</g>
			</g>
		</g>
		<g style="opacity:0.61;">
			<g>
				<g>
					<path style="fill:#FFFFFF;" d="M708.973,859.493c-0.013-2.665-2.087-4.618-4.766-4.659c-2.011-0.031-1.81,0.261-1.815-1.887
						c-0.006-2.389-0.015-4.778,0.006-7.166c0.007-0.824-0.243-1.505-0.787-2.125c-5.098-5.81-10.184-11.63-15.281-17.441
						c-0.262-0.299-0.599-0.532-0.901-0.796c-13.528,0-27.055,0-40.583,0c-1.729,0.639-2.482,1.889-2.478,3.72
						c0.021,8.159,0.009,16.318,0.008,24.478c0,1.21-0.007,1.281-1.197,1.201c-3.258-0.221-5.477,2.147-5.436,5.426
						c0.096,7.568,0.028,15.137,0.031,22.706c0.001,3.44,1.887,5.32,5.333,5.331c1.267,0.004,1.268,0.004,1.268,1.306
						c0.001,4.831-0.002,9.662,0.002,14.493c0.002,2.595,1.262,3.855,3.85,3.855c17.446,0.001,34.891,0.001,52.337,0
						c2.543,0,3.822-1.268,3.824-3.799c0.005-4.912,0.001-9.823,0.003-14.735c0-1.115,0.005-1.112,1.131-1.121
						c0.589-0.005,1.177,0.017,1.761-0.127c2.169-0.535,3.68-2.273,3.689-4.503C709.007,875.597,709.011,867.545,708.973,859.493z
						 M647.034,828.716c11.619-0.001,23.237-0.001,34.856,0c1.193,0,1.206,0.015,1.207,1.222c0.001,4.884-0.002,9.767,0.002,14.651
						c0.001,1.765,0.543,2.305,2.307,2.306c4.159,0.003,8.318,0,12.477,0.003c0.997,0.001,1.044,0.046,1.046,1.052
						c0.006,1.932,0.005,3.864,0,5.796c-0.003,1.038-0.051,1.085-1.098,1.085c-8.479,0.002-16.958,0.001-25.438,0.001
						c-8.452,0-16.905,0-25.357,0c-1.198,0-1.202-0.003-1.202-1.221c-0.001-7.889-0.001-15.778,0-23.667
						C645.835,828.724,645.844,828.716,647.034,828.716z M697.728,903.645c-8.454,0.001-16.908,0.001-25.362,0.001
						c-8.427,0-16.854,0.001-25.281,0c-1.245,0-1.249-0.003-1.249-1.262c-0.001-4.348-0.003-8.696,0.001-13.043
						c0.001-1.01,0.051-1.059,1.041-1.059c16.989-0.002,33.977-0.002,50.966,0c1.041,0,1.086,0.044,1.087,1.094
						c0.003,4.348,0.003,8.696,0.001,13.043C698.931,903.634,698.92,903.645,697.728,903.645z"/>
				</g>
				<g>
					<g>
						<rect x="668.546" y="828.478" style="fill:#FFFFFF;" width="3.825" height="2.295"/>
					</g>
					<g>
						<rect x="664.722" y="830.773" style="fill:#FFFFFF;" width="3.825" height="2.295"/>
					</g>
					<g>
						<rect x="668.546" y="833.068" style="fill:#FFFFFF;" width="3.825" height="2.295"/>
					</g>
					<g>
						<rect x="664.722" y="835.363" style="fill:#FFFFFF;" width="3.825" height="2.295"/>
					</g>
					<g>
						<rect x="668.546" y="837.658" style="fill:#FFFFFF;" width="3.825" height="2.295"/>
					</g>
					<g>
						<rect x="664.722" y="839.953" style="fill:#FFFFFF;" width="3.825" height="2.295"/>
					</g>
					<g>
						<rect x="668.546" y="842.247" style="fill:#FFFFFF;" width="3.825" height="2.295"/>
					</g>
					<g>
						<rect x="664.722" y="844.542" style="fill:#FFFFFF;" width="3.825" height="2.295"/>
					</g>
					<g>
						<rect x="668.546" y="846.837" style="fill:#FFFFFF;" width="3.825" height="2.295"/>
					</g>
					<g>
						<rect x="664.722" y="849.132" style="fill:#FFFFFF;" width="3.825" height="2.295"/>
					</g>
					<g>
						<rect x="668.546" y="851.427" style="fill:#FFFFFF;" width="3.825" height="2.295"/>
					</g>
					<g>
						<rect x="664.722" y="853.722" style="fill:#FFFFFF;" width="3.825" height="2.295"/>
					</g>
				</g>
			</g>
			<g>
				<path style="fill:#FFFFFF;" d="M364.231,859.493c-0.013-2.665-2.087-4.618-4.766-4.659c-2.011-0.031-1.81,0.261-1.815-1.887
					c-0.006-2.389-0.015-4.778,0.006-7.166c0.007-0.824-0.243-1.505-0.787-2.125c-5.098-5.81-10.184-11.63-15.281-17.441
					c-0.262-0.299-0.599-0.532-0.901-0.796c-13.528,0-27.055,0-40.583,0c-1.729,0.639-2.482,1.889-2.478,3.72
					c0.021,8.159,0.009,16.318,0.008,24.478c0,1.21-0.007,1.281-1.197,1.201c-3.258-0.221-5.477,2.147-5.436,5.426
					c0.096,7.568,0.028,15.137,0.031,22.706c0.001,3.44,1.887,5.32,5.333,5.331c1.267,0.004,1.268,0.004,1.268,1.306
					c0.001,4.831-0.002,9.662,0.002,14.493c0.002,2.595,1.262,3.855,3.85,3.855c17.446,0.001,34.891,0.001,52.337,0
					c2.543,0,3.822-1.268,3.824-3.799c0.005-4.912,0.001-9.823,0.003-14.735c0-1.115,0.004-1.112,1.131-1.121
					c0.589-0.005,1.177,0.017,1.761-0.127c2.169-0.535,3.68-2.273,3.689-4.503C364.264,875.597,364.269,867.545,364.231,859.493z
					 M302.292,828.716c11.619-0.001,23.237-0.001,34.856,0c1.192,0,1.206,0.015,1.207,1.222c0.001,4.884-0.001,9.767,0.002,14.651
					c0.001,1.765,0.543,2.305,2.307,2.306c4.159,0.003,8.318,0,12.477,0.003c0.997,0.001,1.044,0.046,1.046,1.052
					c0.006,1.932,0.005,3.864,0,5.796c-0.003,1.038-0.051,1.085-1.098,1.085c-8.479,0.002-16.958,0.001-25.438,0.001
					c-8.452,0-16.905,0-25.357,0c-1.198,0-1.202-0.003-1.202-1.221c-0.001-7.889-0.001-15.778,0-23.667
					C301.093,828.724,301.102,828.716,302.292,828.716z M352.985,903.645c-8.454,0.001-16.908,0.001-25.362,0.001
					c-8.427,0-16.854,0.001-25.281,0c-1.245,0-1.249-0.003-1.249-1.262c-0.001-4.348-0.003-8.696,0.001-13.043
					c0.001-1.01,0.051-1.059,1.041-1.059c16.989-0.002,33.977-0.002,50.966,0c1.041,0,1.086,0.044,1.087,1.094
					c0.003,4.348,0.003,8.696,0.001,13.043C354.188,903.634,354.177,903.645,352.985,903.645z"/>
			</g>
			<g>
				<path style="fill:#FFFFFF;" d="M303.581,879.891v-17.193h6.051c0.816,0,1.581,0.132,2.293,0.396
					c0.712,0.264,1.333,0.636,1.861,1.117c0.527,0.48,0.944,1.053,1.248,1.717c0.304,0.665,0.456,1.397,0.456,2.198
					c0,0.816-0.152,1.557-0.456,2.221s-0.721,1.236-1.248,1.717c-0.529,0.48-1.149,0.852-1.861,1.117
					c-0.713,0.264-1.477,0.396-2.293,0.396h-2.809v6.315H303.581z M309.68,870.503c0.848,0,1.489-0.241,1.921-0.721
					c0.432-0.48,0.648-1.032,0.648-1.656c0-0.304-0.052-0.601-0.156-0.889c-0.105-0.288-0.264-0.54-0.48-0.756
					c-0.216-0.217-0.484-0.388-0.805-0.516c-0.32-0.129-0.696-0.193-1.128-0.193h-2.857v4.731H309.68z"/>
				<path style="fill:#FFFFFF;" d="M317.796,862.699h3.77l6.916,11.526h0.191l-0.191-3.314v-8.212h3.217v17.193h-3.409l-7.3-12.174
					h-0.191l0.191,3.314v8.86h-3.193V862.699z"/>
				<path style="fill:#FFFFFF;" d="M343.08,870.454h8.429c0.048,0.193,0.087,0.425,0.12,0.697c0.031,0.272,0.048,0.544,0.048,0.816
					c0,1.104-0.167,2.145-0.504,3.121c-0.336,0.977-0.865,1.849-1.585,2.618c-0.768,0.817-1.69,1.449-2.761,1.897
					c-1.073,0.448-2.298,0.672-3.674,0.672c-1.249,0-2.426-0.224-3.53-0.672c-1.104-0.447-2.065-1.072-2.881-1.873
					c-0.816-0.8-1.465-1.749-1.945-2.845c-0.48-1.097-0.72-2.293-0.72-3.59c0-1.296,0.24-2.493,0.72-3.589s1.129-2.045,1.945-2.845
					c0.816-0.8,1.777-1.425,2.881-1.873c1.104-0.448,2.281-0.672,3.53-0.672c1.392,0,2.637,0.24,3.734,0.72
					c1.097,0.48,2.036,1.144,2.821,1.993l-2.232,2.185c-0.562-0.592-1.185-1.044-1.874-1.357s-1.513-0.468-2.473-0.468
					c-0.786,0-1.53,0.14-2.234,0.421c-0.705,0.28-1.321,0.676-1.85,1.188c-0.527,0.512-0.949,1.133-1.259,1.861
					c-0.312,0.728-0.469,1.541-0.469,2.437c0,0.897,0.157,1.709,0.469,2.438c0.311,0.728,0.735,1.349,1.271,1.861
					c0.536,0.512,1.156,0.909,1.862,1.188c0.704,0.281,1.457,0.421,2.258,0.421c0.911,0,1.684-0.132,2.317-0.396
					c0.632-0.264,1.171-0.604,1.62-1.021c0.321-0.288,0.598-0.652,0.829-1.092s0.412-0.932,0.541-1.477h-5.404V870.454z"/>
			</g>
			<g>
				<path style="fill:#FFFFFF;" d="M443.437,859.493c-0.013-2.665-2.087-4.618-4.766-4.659c-2.011-0.031-1.81,0.261-1.815-1.887
					c-0.006-2.389-0.015-4.778,0.006-7.166c0.007-0.824-0.243-1.505-0.787-2.125c-5.098-5.81-10.184-11.63-15.281-17.441
					c-0.262-0.299-0.599-0.532-0.901-0.796c-13.528,0-27.055,0-40.583,0c-1.729,0.639-2.482,1.889-2.478,3.72
					c0.021,8.159,0.009,16.318,0.008,24.478c0,1.21-0.007,1.281-1.197,1.201c-3.258-0.221-5.477,2.147-5.436,5.426
					c0.096,7.568,0.028,15.137,0.031,22.706c0.001,3.44,1.887,5.32,5.333,5.331c1.267,0.004,1.268,0.004,1.268,1.306
					c0.001,4.831-0.002,9.662,0.002,14.493c0.002,2.595,1.262,3.855,3.85,3.855c17.446,0.001,34.891,0.001,52.337,0
					c2.543,0,3.822-1.268,3.824-3.799c0.005-4.912,0.001-9.823,0.003-14.735c0-1.115,0.004-1.112,1.131-1.121
					c0.589-0.005,1.177,0.017,1.761-0.127c2.169-0.535,3.68-2.273,3.689-4.503C443.47,875.597,443.475,867.545,443.437,859.493z
					 M381.498,828.716c11.619-0.001,23.237-0.001,34.856,0c1.192,0,1.206,0.015,1.207,1.222c0.001,4.884-0.001,9.767,0.002,14.651
					c0.001,1.765,0.543,2.305,2.307,2.306c4.159,0.003,8.318,0,12.477,0.003c0.997,0.001,1.044,0.046,1.046,1.052
					c0.006,1.932,0.005,3.864,0,5.796c-0.003,1.038-0.051,1.085-1.098,1.085c-8.479,0.002-16.958,0.001-25.438,0.001
					c-8.452,0-16.905,0-25.357,0c-1.198,0-1.202-0.003-1.202-1.221c-0.001-7.889-0.001-15.778,0-23.667
					C380.299,828.724,380.308,828.716,381.498,828.716z M432.192,903.645c-8.454,0.001-16.908,0.001-25.362,0.001
					c-8.427,0-16.854,0.001-25.281,0c-1.245,0-1.249-0.003-1.249-1.262c-0.001-4.348-0.002-8.696,0.001-13.043
					c0.001-1.01,0.051-1.059,1.041-1.059c16.989-0.002,33.977-0.002,50.966,0c1.041,0,1.086,0.044,1.087,1.094
					c0.003,4.348,0.003,8.696,0.001,13.043C433.394,903.634,433.384,903.645,432.192,903.645z"/>
			</g>
			<g>
				<path style="fill:#FFFFFF;" d="M402.272,862.699h3.698l6.46,17.193h-3.578l-1.416-4.106h-6.628l-1.417,4.106h-3.578
					L402.272,862.699z M406.379,872.808l-1.537-4.298l-0.625-2.089h-0.192l-0.625,2.089l-1.537,4.298H406.379z"/>
				<path style="fill:#FFFFFF;" d="M415.815,866.541c-0.273,0-0.533-0.052-0.781-0.156c-0.248-0.104-0.465-0.248-0.648-0.432
					c-0.184-0.184-0.328-0.396-0.432-0.636c-0.105-0.241-0.156-0.504-0.156-0.793s0.052-0.552,0.156-0.793
					c0.104-0.24,0.248-0.452,0.432-0.636c0.184-0.184,0.4-0.328,0.648-0.432c0.248-0.104,0.508-0.156,0.781-0.156
					c0.56,0,1.041,0.196,1.441,0.588c0.4,0.393,0.601,0.869,0.601,1.429c0,0.56-0.201,1.037-0.601,1.428
					C416.856,866.345,416.375,866.541,415.815,866.541z M414.255,879.891v-11.766h3.145v11.766H414.255z"/>
			</g>
			<g>
				<path style="fill:#FFFFFF;" d="M524.043,859.493c-0.013-2.665-2.087-4.618-4.766-4.659c-2.011-0.031-1.81,0.261-1.815-1.887
					c-0.006-2.389-0.015-4.778,0.006-7.166c0.007-0.824-0.243-1.505-0.787-2.125c-5.098-5.81-10.184-11.63-15.281-17.441
					c-0.262-0.299-0.599-0.532-0.901-0.796c-13.528,0-27.055,0-40.583,0c-1.729,0.639-2.482,1.889-2.478,3.72
					c0.021,8.159,0.009,16.318,0.008,24.478c0,1.21-0.007,1.281-1.197,1.201c-3.258-0.221-5.477,2.147-5.436,5.426
					c0.096,7.568,0.028,15.137,0.031,22.706c0.001,3.44,1.887,5.32,5.333,5.331c1.267,0.004,1.268,0.004,1.268,1.306
					c0.001,4.831-0.002,9.662,0.002,14.493c0.002,2.595,1.262,3.855,3.85,3.855c17.446,0.001,34.891,0.001,52.337,0
					c2.543,0,3.822-1.268,3.824-3.799c0.005-4.912,0.001-9.823,0.003-14.735c0-1.115,0.004-1.112,1.131-1.121
					c0.589-0.005,1.177,0.017,1.761-0.127c2.169-0.535,3.68-2.273,3.689-4.503C524.076,875.597,524.081,867.545,524.043,859.493z
					 M462.104,828.716c11.619-0.001,23.237-0.001,34.856,0c1.192,0,1.206,0.015,1.207,1.222c0.001,4.884-0.001,9.767,0.002,14.651
					c0.001,1.765,0.543,2.305,2.307,2.306c4.159,0.003,8.318,0,12.477,0.003c0.997,0.001,1.044,0.046,1.046,1.052
					c0.006,1.932,0.005,3.864,0,5.796c-0.003,1.038-0.051,1.085-1.098,1.085c-8.479,0.002-16.958,0.001-25.438,0.001
					c-8.452,0-16.905,0-25.357,0c-1.198,0-1.202-0.003-1.202-1.221c-0.001-7.889-0.001-15.778,0-23.667
					C460.905,828.724,460.914,828.716,462.104,828.716z M512.798,903.645c-8.454,0.001-16.908,0.001-25.362,0.001
					c-8.427,0-16.854,0.001-25.281,0c-1.245,0-1.249-0.003-1.249-1.262c-0.001-4.348-0.002-8.696,0.001-13.043
					c0.001-1.01,0.051-1.059,1.041-1.059c16.989-0.002,33.977-0.002,50.966,0c1.041,0,1.086,0.044,1.087,1.094
					c0.003,4.348,0.003,8.696,0.001,13.043C514,903.634,513.989,903.645,512.798,903.645z"/>
			</g>
			<g>
				<path style="fill:#FFFFFF;" d="M470.308,880.275c-0.737,0-1.441-0.104-2.113-0.312c-0.672-0.208-1.289-0.52-1.849-0.936
					c-0.56-0.416-1.048-0.925-1.464-1.525c-0.417-0.601-0.745-1.301-0.985-2.101l3.049-1.2c0.224,0.864,0.616,1.581,1.177,2.149
					s1.297,0.852,2.209,0.852c0.336,0,0.66-0.044,0.973-0.132c0.312-0.087,0.592-0.216,0.84-0.384
					c0.248-0.168,0.444-0.38,0.589-0.636c0.144-0.256,0.216-0.552,0.216-0.888c0-0.32-0.056-0.608-0.168-0.865
					c-0.112-0.255-0.3-0.495-0.564-0.72c-0.264-0.224-0.609-0.44-1.033-0.648c-0.424-0.208-0.948-0.424-1.572-0.648l-1.056-0.384
					c-0.465-0.16-0.933-0.376-1.405-0.648c-0.472-0.272-0.9-0.6-1.284-0.985c-0.385-0.384-0.701-0.836-0.949-1.357
					c-0.249-0.52-0.372-1.108-0.372-1.765c0-0.672,0.132-1.301,0.396-1.885c0.264-0.584,0.64-1.096,1.129-1.537
					c0.488-0.44,1.072-0.784,1.753-1.032c0.681-0.248,1.437-0.372,2.269-0.372c0.864,0,1.612,0.116,2.245,0.348
					c0.633,0.232,1.168,0.528,1.609,0.888c0.44,0.36,0.796,0.757,1.068,1.188c0.272,0.433,0.472,0.84,0.601,1.225l-2.857,1.2
					c-0.161-0.48-0.453-0.913-0.876-1.297c-0.425-0.384-1.005-0.576-1.741-0.576c-0.704,0-1.289,0.164-1.753,0.492
					c-0.465,0.329-0.697,0.757-0.697,1.285c0,0.512,0.224,0.949,0.672,1.309c0.448,0.36,1.161,0.708,2.137,1.044l1.081,0.36
					c0.688,0.241,1.316,0.517,1.885,0.828c0.568,0.312,1.056,0.684,1.465,1.117c0.408,0.433,0.72,0.925,0.936,1.477
					c0.217,0.552,0.324,1.189,0.324,1.909c0,0.897-0.18,1.669-0.54,2.317c-0.36,0.648-0.82,1.181-1.38,1.597
					c-0.561,0.416-1.193,0.728-1.897,0.936C471.668,880.172,470.98,880.275,470.308,880.275z"/>
				<path style="fill:#FFFFFF;" d="M477.175,862.699h3.506l3.554,10.349l0.625,2.209h0.192l0.672-2.209l3.698-10.349h3.506
					l-6.268,17.193h-3.409L477.175,862.699z"/>
				<path style="fill:#FFFFFF;" d="M502.388,870.454h8.428c0.048,0.193,0.088,0.425,0.12,0.697c0.033,0.272,0.049,0.544,0.049,0.816
					c0,1.104-0.169,2.145-0.505,3.121c-0.336,0.977-0.864,1.849-1.585,2.618c-0.768,0.817-1.688,1.449-2.761,1.897
					c-1.073,0.448-2.298,0.672-3.674,0.672c-1.249,0-2.425-0.224-3.529-0.672c-1.105-0.447-2.066-1.072-2.882-1.873
					c-0.816-0.8-1.465-1.749-1.945-2.845c-0.48-1.097-0.72-2.293-0.72-3.59c0-1.296,0.241-2.493,0.72-3.589
					c0.48-1.097,1.129-2.045,1.945-2.845c0.816-0.8,1.777-1.425,2.882-1.873c1.104-0.448,2.28-0.672,3.529-0.672
					c1.392,0,2.637,0.24,3.734,0.72c1.097,0.48,2.038,1.144,2.822,1.993l-2.234,2.185c-0.56-0.592-1.185-1.044-1.874-1.357
					c-0.687-0.312-1.512-0.468-2.473-0.468c-0.784,0-1.528,0.14-2.234,0.421c-0.704,0.28-1.321,0.676-1.848,1.188
					c-0.528,0.512-0.949,1.133-1.261,1.861c-0.312,0.728-0.468,1.541-0.468,2.437c0,0.897,0.156,1.709,0.468,2.438
					c0.312,0.728,0.737,1.349,1.273,1.861c0.536,0.512,1.156,0.909,1.86,1.188c0.705,0.281,1.457,0.421,2.258,0.421
					c0.913,0,1.685-0.132,2.317-0.396c0.632-0.264,1.173-0.604,1.621-1.021c0.32-0.288,0.596-0.652,0.828-1.092
					c0.233-0.44,0.412-0.932,0.541-1.477h-5.402V870.454z"/>
			</g>
			<g>
				<path style="fill:#FFFFFF;" d="M602.976,859.493c-0.013-2.665-2.087-4.618-4.766-4.659c-2.011-0.031-1.81,0.261-1.815-1.887
					c-0.006-2.389-0.015-4.778,0.006-7.166c0.007-0.824-0.243-1.505-0.787-2.125c-5.098-5.81-10.184-11.63-15.281-17.441
					c-0.262-0.299-0.599-0.532-0.901-0.796c-13.528,0-27.055,0-40.583,0c-1.729,0.639-2.482,1.889-2.478,3.72
					c0.021,8.159,0.009,16.318,0.008,24.478c0,1.21-0.007,1.281-1.197,1.201c-3.258-0.221-5.477,2.147-5.436,5.426
					c0.096,7.568,0.028,15.137,0.031,22.706c0.001,3.44,1.887,5.32,5.333,5.331c1.267,0.004,1.268,0.004,1.268,1.306
					c0.001,4.831-0.002,9.662,0.002,14.493c0.002,2.595,1.262,3.855,3.85,3.855c17.446,0.001,34.891,0.001,52.337,0
					c2.543,0,3.822-1.268,3.824-3.799c0.005-4.912,0.001-9.823,0.003-14.735c0-1.115,0.005-1.112,1.131-1.121
					c0.589-0.005,1.178,0.017,1.761-0.127c2.169-0.535,3.68-2.273,3.689-4.503C603.01,875.597,603.015,867.545,602.976,859.493z
					 M541.037,828.716c11.619-0.001,23.237-0.001,34.856,0c1.193,0,1.206,0.015,1.207,1.222c0.001,4.884-0.002,9.767,0.002,14.651
					c0.001,1.765,0.543,2.305,2.307,2.306c4.159,0.003,8.318,0,12.477,0.003c0.997,0.001,1.044,0.046,1.046,1.052
					c0.006,1.932,0.005,3.864,0,5.796c-0.003,1.038-0.051,1.085-1.098,1.085c-8.479,0.002-16.958,0.001-25.438,0.001
					c-8.452,0-16.905,0-25.357,0c-1.198,0-1.202-0.003-1.202-1.221c-0.001-7.889-0.001-15.778,0-23.667
					C539.838,828.724,539.847,828.716,541.037,828.716z M591.731,903.645c-8.454,0.001-16.908,0.001-25.362,0.001
					c-8.427,0-16.854,0.001-25.281,0c-1.245,0-1.249-0.003-1.249-1.262c-0.001-4.348-0.003-8.696,0.001-13.043
					c0.001-1.01,0.051-1.059,1.041-1.059c16.989-0.002,33.977-0.002,50.966,0c1.041,0,1.086,0.044,1.087,1.094
					c0.003,4.348,0.003,8.696,0.001,13.043C592.934,903.634,592.923,903.645,591.731,903.645z"/>
			</g>
			<g>
				<path style="fill:#FFFFFF;" d="M549.998,865.772v3.986h6.891v3.074h-6.891v3.986h7.659v3.073h-10.901v-17.193h10.901v3.073
					H549.998z"/>
				<path style="fill:#FFFFFF;" d="M560.635,879.891v-17.193h6.051c0.816,0,1.581,0.132,2.293,0.396
					c0.712,0.264,1.333,0.636,1.861,1.117c0.528,0.48,0.944,1.053,1.249,1.717c0.304,0.665,0.456,1.397,0.456,2.198
					c0,0.816-0.152,1.557-0.456,2.221c-0.305,0.664-0.721,1.236-1.249,1.717c-0.528,0.48-1.149,0.852-1.861,1.117
					c-0.713,0.264-1.477,0.396-2.293,0.396h-2.809v6.315H560.635z M566.735,870.503c0.848,0,1.489-0.241,1.921-0.721
					c0.432-0.48,0.648-1.032,0.648-1.656c0-0.304-0.052-0.601-0.156-0.889c-0.105-0.288-0.264-0.54-0.48-0.756
					c-0.216-0.217-0.484-0.388-0.805-0.516c-0.32-0.129-0.696-0.193-1.128-0.193h-2.857v4.731H566.735z"/>
				<path style="fill:#FFFFFF;" d="M580.109,880.275c-0.737,0-1.441-0.104-2.113-0.312c-0.672-0.208-1.289-0.52-1.849-0.936
					c-0.56-0.416-1.049-0.925-1.465-1.525c-0.416-0.601-0.744-1.301-0.985-2.101l3.049-1.2c0.224,0.864,0.616,1.581,1.177,2.149
					c0.56,0.568,1.296,0.852,2.209,0.852c0.336,0,0.66-0.044,0.973-0.132c0.312-0.087,0.592-0.216,0.84-0.384
					c0.248-0.168,0.444-0.38,0.588-0.636c0.144-0.256,0.217-0.552,0.217-0.888c0-0.32-0.057-0.608-0.168-0.865
					c-0.112-0.255-0.3-0.495-0.565-0.72c-0.264-0.224-0.608-0.44-1.032-0.648c-0.424-0.208-0.949-0.424-1.573-0.648l-1.056-0.384
					c-0.465-0.16-0.932-0.376-1.404-0.648c-0.473-0.272-0.901-0.6-1.285-0.985c-0.384-0.384-0.701-0.836-0.949-1.357
					c-0.248-0.52-0.372-1.108-0.372-1.765c0-0.672,0.132-1.301,0.396-1.885c0.264-0.584,0.64-1.096,1.129-1.537
					c0.489-0.44,1.073-0.784,1.753-1.032c0.68-0.248,1.437-0.372,2.269-0.372c0.865,0,1.613,0.116,2.246,0.348
					c0.632,0.232,1.168,0.528,1.609,0.888c0.44,0.36,0.796,0.757,1.068,1.188c0.272,0.433,0.472,0.84,0.601,1.225l-2.857,1.2
					c-0.161-0.48-0.453-0.913-0.877-1.297s-1.005-0.576-1.741-0.576c-0.705,0-1.289,0.164-1.753,0.492
					c-0.465,0.329-0.696,0.757-0.696,1.285c0,0.512,0.224,0.949,0.672,1.309c0.448,0.36,1.16,0.708,2.137,1.044l1.08,0.36
					c0.689,0.241,1.317,0.517,1.885,0.828c0.568,0.312,1.056,0.684,1.465,1.117c0.408,0.433,0.72,0.925,0.936,1.477
					c0.216,0.552,0.324,1.189,0.324,1.909c0,0.897-0.18,1.669-0.54,2.317c-0.36,0.648-0.821,1.181-1.38,1.597
					c-0.561,0.416-1.193,0.728-1.897,0.936C581.47,880.172,580.782,880.275,580.109,880.275z"/>
			</g>
			<g>
				<path style="fill:#FFFFFF;" d="M655.431,876.625l8.716-10.854h-8.332v-3.073h12.103v3.266l-8.621,10.854h8.716v3.073h-12.582
					V876.625z"/>
				<path style="fill:#FFFFFF;" d="M670.702,862.699h3.242v17.193h-3.242V862.699z"/>
				<path style="fill:#FFFFFF;" d="M677.402,879.891v-17.193h6.051c0.817,0,1.581,0.132,2.293,0.396
					c0.712,0.264,1.333,0.636,1.861,1.117s0.944,1.053,1.249,1.717c0.304,0.665,0.456,1.397,0.456,2.198
					c0,0.816-0.152,1.557-0.456,2.221c-0.305,0.664-0.721,1.236-1.249,1.717s-1.149,0.852-1.861,1.117
					c-0.713,0.264-1.477,0.396-2.293,0.396h-2.809v6.315H677.402z M683.501,870.503c0.848,0,1.489-0.241,1.921-0.721
					c0.433-0.48,0.648-1.032,0.648-1.656c0-0.304-0.052-0.601-0.156-0.889c-0.105-0.288-0.264-0.54-0.48-0.756
					c-0.216-0.217-0.484-0.388-0.805-0.516c-0.32-0.129-0.696-0.193-1.128-0.193h-2.857v4.731H683.501z"/>
			</g>
		</g>
		<g style="opacity:0.61;">
			<path style="fill:#FFFFFF;" d="M609.144,863.785h19.739v4.881h-19.739V863.785z M609.144,872.201h19.739v4.884h-19.739V872.201z"
				/>
		</g>
	</g>
	<g style="opacity:0.61;">
		<path style="fill:#FFFFFF;" d="M297,963.076h3.498c2.75,0,4.603,1.768,4.603,4.297s-1.854,4.296-4.603,4.296H297V963.076z
			 M300.449,970.883c2.283,0,3.756-1.448,3.756-3.51s-1.473-3.511-3.756-3.511h-2.541v7.021H300.449z"/>
		<path style="fill:#FFFFFF;" d="M315.251,967.373c0-2.504,1.915-4.37,4.517-4.37c2.577,0,4.505,1.853,4.505,4.37
			c0,2.516-1.927,4.369-4.505,4.369C317.166,971.742,315.251,969.877,315.251,967.373z M323.365,967.373
			c0-2.05-1.534-3.56-3.596-3.56c-2.075,0-3.621,1.51-3.621,3.56c0,2.049,1.546,3.559,3.621,3.559
			C321.831,970.932,323.365,969.422,323.365,967.373z"/>
		<path style="fill:#FFFFFF;" d="M346.724,963.076l-2.897,8.593h-0.957l-2.516-7.328l-2.529,7.328h-0.945l-2.897-8.593h0.933
			l2.479,7.389l2.566-7.389h0.847l2.529,7.426l2.516-7.426H346.724z"/>
		<path style="fill:#FFFFFF;" d="M364.435,963.076v8.593h-0.749l-5.524-6.972v6.972h-0.908v-8.593h0.749l5.536,6.973v-6.973H364.435
			z"/>
		<path style="fill:#FFFFFF;" d="M376.108,963.076h0.908v7.807h4.812v0.786h-5.72V963.076z"/>
		<path style="fill:#FFFFFF;" d="M391.279,967.373c0-2.504,1.915-4.37,4.517-4.37c2.577,0,4.505,1.853,4.505,4.37
			c0,2.516-1.927,4.369-4.505,4.369C393.194,971.742,391.279,969.877,391.279,967.373z M399.392,967.373
			c0-2.05-1.534-3.56-3.596-3.56c-2.075,0-3.621,1.51-3.621,3.56c0,2.049,1.546,3.559,3.621,3.559
			C397.858,970.932,399.392,969.422,399.392,967.373z"/>
		<path style="fill:#FFFFFF;" d="M416.478,969.374h-4.787l-1.031,2.295h-0.945l3.928-8.593h0.896l3.928,8.593h-0.957
			L416.478,969.374z M416.147,968.637l-2.062-4.615l-2.062,4.615H416.147z"/>
		<path style="fill:#FFFFFF;" d="M428.765,963.076h3.498c2.75,0,4.603,1.768,4.603,4.297s-1.854,4.296-4.603,4.296h-3.498V963.076z
			 M432.214,970.883c2.283,0,3.756-1.448,3.756-3.51s-1.473-3.511-3.756-3.511h-2.541v7.021H432.214z"/>
		<path style="fill:#FFFFFF;" d="M465.256,969.374h-4.787l-1.031,2.295h-0.945l3.928-8.593h0.896l3.928,8.593h-0.957
			L465.256,969.374z M464.925,968.637l-2.062-4.615l-2.062,4.615H464.925z"/>
		<path style="fill:#FFFFFF;" d="M477.543,963.076h0.908v7.807h4.812v0.786h-5.72V963.076z"/>
		<path style="fill:#FFFFFF;" d="M493.647,963.076h0.908v7.807h4.812v0.786h-5.72V963.076z"/>
		<path style="fill:#FFFFFF;" d="M522.749,963.862v3.376h4.443v0.786h-4.443v3.646h-0.909v-8.593h5.891v0.786H522.749z"/>
		<path style="fill:#FFFFFF;" d="M538.485,963.076h0.909v8.593h-0.909V963.076z"/>
		<path style="fill:#FFFFFF;" d="M551.067,963.076h0.909v7.807h4.811v0.786h-5.72V963.076z"/>
		<path style="fill:#FFFFFF;" d="M573.246,970.883v0.786h-6.076v-8.593h5.891v0.786h-4.983v3.056h4.443v0.774h-4.443v3.191H573.246z
			"/>
		<path style="fill:#FFFFFF;" d="M597.255,963.862v3.376h4.443v0.786h-4.443v3.646h-0.909v-8.593h5.891v0.786H597.255z"/>
		<path style="fill:#FFFFFF;" d="M612.119,967.373c0-2.504,1.915-4.37,4.517-4.37c2.577,0,4.505,1.853,4.505,4.37
			c0,2.516-1.927,4.369-4.505,4.369C614.034,971.742,612.119,969.877,612.119,967.373z M620.232,967.373
			c0-2.05-1.534-3.56-3.596-3.56c-2.075,0-3.622,1.51-3.622,3.56c0,2.049,1.547,3.559,3.622,3.559
			C618.698,970.932,620.232,969.422,620.232,967.373z"/>
		<path style="fill:#FFFFFF;" d="M637.919,971.669l-1.963-2.762c-0.222,0.024-0.442,0.037-0.688,0.037h-2.307v2.725h-0.909v-8.593
			h3.216c2.185,0,3.511,1.105,3.511,2.946c0,1.351-0.712,2.295-1.964,2.7l2.099,2.946H637.919z M637.871,966.022
			c0-1.375-0.909-2.161-2.627-2.161h-2.283v4.309h2.283C636.962,968.17,637.871,967.373,637.871,966.022z"/>
		<path style="fill:#FFFFFF;" d="M658.724,963.076v8.593h-0.871v-6.874l-3.376,5.782h-0.429l-3.376-5.745v6.837h-0.872v-8.593h0.749
			l3.732,6.371l3.695-6.371H658.724z"/>
		<path style="fill:#FFFFFF;" d="M675.787,969.374h-4.788l-1.031,2.295h-0.946l3.928-8.593h0.896l3.928,8.593h-0.957
			L675.787,969.374z M675.455,968.637l-2.062-4.615l-2.062,4.615H675.455z"/>
		<path style="fill:#FFFFFF;" d="M689.312,963.862h-3.02v-0.786h6.948v0.786h-3.02v7.807h-0.908V963.862z"/>
		<path style="fill:#FFFFFF;" d="M702.605,970.626l0.356-0.7c0.614,0.601,1.706,1.043,2.835,1.043c1.608,0,2.308-0.675,2.308-1.522
			c0-2.357-5.29-0.908-5.29-4.087c0-1.265,0.982-2.357,3.167-2.357c0.97,0,1.976,0.282,2.664,0.761l-0.307,0.724
			c-0.737-0.479-1.596-0.712-2.357-0.712c-1.571,0-2.271,0.7-2.271,1.559c0,2.357,5.29,0.933,5.29,4.063
			c0,1.265-1.006,2.344-3.204,2.344C704.508,971.742,703.243,971.288,702.605,970.626z"/>
	</g>
</g>
<g>
</g>
<g>
	<g>
		<polygon style="fill-rule:evenodd;clip-rule:evenodd;fill:#231F20;" points="250.107,250.106 749.894,250.106 749.894,749.893 
			250.107,749.893 250.107,250.106 		"/>
		<path style="fill:#231F20;" d="M750,750H250V250h500V750z M250.213,749.787h499.575V250.213H250.213V749.787z"/>
	</g>
	<g>
		<path style="fill-rule:evenodd;clip-rule:evenodd;fill:#FFFFFF;" d="M514.041,525.886l-2.043-6.09l-2.113,6.09H514.041
			L514.041,525.886z M519.298,531.569h-3.404l-0.986-2.936h-5.939l-1.007,2.936h-3.405l6.079-16.711h1.151
			c0.965-0.007,1.632,0.537,2.004,1.632L519.298,531.569L519.298,531.569z"/>
	</g>
	<g>
		<path style="fill-rule:evenodd;clip-rule:evenodd;fill:#FFFFFF;" d="M458.482,531.551h10.99v-2.888h-7.743v-3.956h6.595v-2.889
			h-6.595v-2.088c0.003-1.68,0.8-1.962,1.576-2h6.167v-2.889l-7.803-0.003c-1.134,0-1.892,0.35-2.458,1.035
			c-0.614,0.755-0.73,1.955-0.73,4.503V531.551L458.482,531.551z"/>
	</g>
	<g>
		<path style="fill-rule:evenodd;clip-rule:evenodd;fill:#FFFFFF;" d="M398.105,514.858h10.989v2.888h-7.746v3.956h6.595v2.888
			h-6.595l0.004,2.088c0,1.682,0.797,1.962,1.576,2.001h6.166v2.892h-7.802c-1.134,0-1.893-0.351-2.458-1.036
			c-0.614-0.753-0.729-1.954-0.729-4.499V514.858L398.105,514.858z"/>
	</g>
	<g>
		<path style="fill-rule:evenodd;clip-rule:evenodd;fill:#FFFFFF;" d="M550.487,523.145c0-2.545-0.095-3.609-0.709-4.36
			c-0.569-0.684-1.323-1.039-2.457-1.039h-2.481v10.934h2.481c1.134,0,1.888-0.351,2.457-1.035
			C550.392,526.89,550.487,525.69,550.487,523.145L550.487,523.145z M553.73,523.145c0,2.52,0.189,4.97-1.682,6.841
			c-1.095,1.094-2.674,1.586-4.422,1.586h-6.03v-16.714h6.03c1.749,0,3.327,0.488,4.422,1.583
			C553.919,518.312,553.73,520.621,553.73,523.145L553.73,523.145z"/>
	</g>
	<g>
		<path style="fill-rule:evenodd;clip-rule:evenodd;fill:#FFFFFF;" d="M533.011,531.569l-6.619-10.264v10.264h-3.243v-16.711h2.896
			l6.616,10.224v-8.388c-0.063-0.868-0.281-1.33-0.98-1.682c-0.06-0.119-0.028-0.154,0.014-0.154h1.815
			c1.569-0.057,2.37,1.11,2.398,3.499v13.212H533.011L533.011,531.569z"/>
	</g>
	<g>
		<path style="fill-rule:evenodd;clip-rule:evenodd;fill:#FFFFFF;" d="M491.159,531.572V517.02c0.014-1.064-0.305-1.541-1.091-2.008
			c-0.06-0.119-0.028-0.154,0.018-0.154h1.835c1.333,0,2.414,0.442,2.484,3.644v10.178h8.011v2.892H491.159L491.159,531.572z"/>
	</g>
	<g>
		<path style="fill-rule:evenodd;clip-rule:evenodd;fill:#FFFFFF;" d="M482.068,525.886l-2.038-6.09l-2.113,6.09H482.068
			L482.068,525.886z M487.327,531.569h-3.402l-0.986-2.936h-5.939l-1.011,2.936h-3.401l6.079-16.711h1.147
			c0.964-0.007,1.635,0.537,2.004,1.632L487.327,531.569L487.327,531.569z"/>
	</g>
	<g>
		<polygon style="fill-rule:evenodd;clip-rule:evenodd;fill:#FFFFFF;" points="442.828,531.572 442.828,528.96 449.964,517.746 
			443.134,517.746 443.134,514.858 453.815,514.858 453.815,517.42 446.654,528.68 453.815,528.68 453.815,531.572 442.828,531.572 
					"/>
	</g>
	<g>
		<path style="fill-rule:evenodd;clip-rule:evenodd;fill:#FFFFFF;" d="M428.301,531.569h-2.72l-3.074-10.144l-3.075,10.144h-2.723
			l-3.823-14.331c-0.273-1.401-0.786-1.849-1.727-2.226c-0.067-0.119-0.035-0.154,0.008-0.154h2.137
			c1.608,0.014,2.58,0.784,2.913,2.306l2.017,8.223l3.051-10.529h2.439l3.053,10.529l2.605-10.529h3.404L428.301,531.569
			L428.301,531.569z"/>
	</g>
	<g>
		<polygon style="fill-rule:evenodd;clip-rule:evenodd;fill:#FFFFFF;" points="389.52,531.569 382.904,521.305 382.904,531.569 
			379.657,531.569 379.657,514.858 382.552,514.858 389.169,525.082 389.169,514.858 392.415,514.858 392.415,531.569 
			389.52,531.569 		"/>
	</g>
	<g>
		<path style="fill-rule:evenodd;clip-rule:evenodd;fill:#FFFFFF;" d="M282.524,520.744v4.914c0,1.607,1.341,2.945,2.945,2.945
			c1.741,0,3.043-1.327,3.043-3.115v-4.422l-0.023-0.754c-0.018-0.337-0.151-0.723-0.411-1.137
			c-0.565-0.899-1.507-1.401-2.559-1.401C283.813,517.774,282.524,519.044,282.524,520.744L282.524,520.744z M291.66,520.79v5.012
			c0,3.205-2.871,5.949-6.167,5.949c-3.492,0-6.116-2.752-6.116-6.331v-4.63c0-3.423,2.709-6.189,6.141-6.189
			C289,514.601,291.66,517.294,291.66,520.79L291.66,520.79z"/>
	</g>
	<g>
		<path style="fill-rule:evenodd;clip-rule:evenodd;fill:#FFFFFF;" d="M295.914,516.886c0.015-1.039-0.312-1.52-1.081-1.976
			c-0.06-0.116-0.027-0.147,0.014-0.147h1.797c1.306,0,2.362,0.431,2.428,3.562v7.238c0,1.702,1.346,3.04,3.019,3.04
			c1.693,0,2.945-1.279,2.945-3.04v-10.818h3.173v10.818c0,3.401-2.759,6.187-6.167,6.187c-3.359,0-6.138-2.786-6.138-6.187
			L295.914,516.886L295.914,516.886z"/>
	</g>
	<g>
		<path style="fill-rule:evenodd;clip-rule:evenodd;fill:#FFFFFF;" d="M272.401,529.484c-0.014,1.039,0.312,1.52,1.085,1.976
			c0.056,0.116,0.025,0.151-0.018,0.151h-1.797c-1.302,0-2.359-0.436-2.428-3.566l-0.007-10.271h-1.927
			c-1.696-0.21-2.573-1.218-2.629-3.029h12.14v3.029h-4.411L272.401,529.484L272.401,529.484z"/>
	</g>
	<g>
		<path style="fill-rule:evenodd;clip-rule:evenodd;fill:#FFFFFF;" d="M329.866,516.873c0.014-1.039-0.312-1.52-1.082-1.976
			c-0.06-0.116-0.028-0.151,0.014-0.151h1.801c1.302,0,2.503,0.435,2.57,3.566l0.01,13.295h-3.317L329.866,516.873L329.866,516.873z
			"/>
	</g>
	<g>
		<path style="fill-rule:evenodd;clip-rule:evenodd;fill:#FFFFFF;" d="M313.015,514.746h6.945c2.867,0,5.086,2.155,5.086,5.016
			c0,1.987-1.082,3.598-2.91,4.483l3.735,7.363h-3.837l-2.955-6.201c-1.099-2.281-1.991-3.724-0.987-4.942
			c0.018-0.039,0.043-0.039,0.071,0.003c-0.046,1.183,1.151,1.492,1.499,1.527c1.144,0.14,2.236-1.063,2.236-2.233
			c0-1.137-0.87-1.987-2.06-1.987h-3.64v13.832h-3.173L313.015,514.746L313.015,514.746z"/>
	</g>
	<g>
		<path style="fill-rule:evenodd;clip-rule:evenodd;fill:#FFFFFF;" d="M343.529,531.751c-4.166,0.067-7.336-2.646-4.91-5.52
			c0.062-0.06,0.122-0.071,0.182-0.035c0.011,1.499,1.941,2.794,4.844,2.555c2.036-0.169,2.927-1.011,2.927-2.134
			c0-0.603-0.292-1.137-0.723-1.44c-0.393-0.259-0.874-0.379-2.32-0.448c-1.664-0.098-2.514-0.298-3.468-0.905
			c-1.495-0.92-2.361-2.472-2.361-4.206c0-3.004,2.411-5.016,5.686-5.016c2.25,0,3.91,0.639,5.781,1.84l-1.804,2.787
			c-1.374-0.979-2.419-1.477-4.146-1.477c-1.527,0-2.344,0.792-2.344,1.818c0,0.354,0.101,0.698,0.276,0.948
			c0.436,0.621,0.769,0.825,2.45,0.894c1.491,0.099,2.745,0.372,3.665,0.87c1.459,0.822,2.453,2.555,2.453,4.289
			C349.718,529.711,347.464,531.691,343.529,531.751L343.529,531.751z"/>
	</g>
	<g>
		<path style="fill-rule:evenodd;clip-rule:evenodd;fill:#FFFFFF;" d="M368.562,529.488c-0.014,1.038,0.312,1.519,1.081,1.976
			c0.06,0.115,0.025,0.151-0.014,0.151h-1.801c-1.302,0-2.359-0.435-2.425-3.566l0.004-5.008l-2.858,6.29h-2.572l-2.833-6.276v8.553
			h-3.173v-14.345c-0.038-1.319-0.807-1.997-1.727-2.365c-0.071-0.116-0.036-0.151,0.003-0.151h2.798
			c1.351,0.011,2.247,0.568,2.678,1.675l3.541,8.108l4.293-9.783l3,0.003L368.562,529.488L368.562,529.488z"/>
	</g>
	<g>
		<path style="fill-rule:evenodd;clip-rule:evenodd;fill:#FFFFFF;" d="M709.552,417.619c-0.276,0.587-0.701,1.583-0.831,1.693
			c0.464-0.333,4.799-0.661,6.15,0.88c-1.79,3.552-6.577,2.348-7.255,1.264l-1.758,2.752c0.021,0,4.075-1.682,7.423,1.33
			c-4.363,4.464-8.698,0.561-8.698,0.54c-0.807,1.13-0.972,1.054-1.562,1.931c2.836-0.081,5.423,0.674,7.757,3.345
			c-5.139,4.162-10.709,0.608-10.365-0.304c-0.859,0.986-1.702,1.74-2.709,2.793c3.331-0.916,6.479,1.2,8.543,4.988
			c-7.339,4.229-11.253-2.37-11.396-2.444c-1.415,1.148-1.945,1.629-3.753,3.005c0.084-0.021,7.417-0.512,10.088,5.848
			c-8.96,2.4-12.681-1.825-13.268-3.569c0.021,0.021-1.835,1.432-3.85,2.765c4.482,0.341,9.393,3.156,10.611,7.585
			c-7.101,1.931-13.465-3.556-14.276-5.247c-0.884,0.52-2.165,1.277-3.295,1.955c2.288,0.604,8.128,2.545,10.603,9.922
			c-12.884,2.267-15.823-5.342-16.704-6.552c-1.291,0.758-2.636,1.238-4.472,2.358c3.46,0.39,10.067,3.204,13.026,10.993
			c-12.675,1.621-17.655-6.865-18.164-8.487c-1.383,0.703-2.81,1.541-4.128,2.138c2.278,0.582,8.617,1.08,12.86,13.846
			c-9.592,0.229-19.42-9.614-18.711-10.951c-1.186,0.59-2.938,1.436-4.475,2.176c6.43,0.909,12.8,8.188,14.289,15.496
			c-8.435,1.987-20.126-8.273-20.021-12.643c-0.411,0.207-1.808,0.924-4.149,2.075c0.057,0.01,8.765,1.309,15.149,17.802
			c-8.459,1.365-20.294-9.378-22.008-14.289c-0.636,0.327-2.702,1.587-4.036,2.285c2.791-0.919,16.661,12.952,16.328,19.958
			c-13.201,0.586-25.12-13.369-24.222-15.591c-1.61,0.807-3.214,2.095-4.791,2.937c3.668,0.298,17.651,10.818,20.768,22.766
			c-13.159,4.334-29.396-13.717-28.156-17.838c-0.811,0.489-6.104,4.577-6.918,5.216c4.12,0.46,21.67,11.2,26.939,26.878
			c-29.322,2.959-33.857-20.953-34.119-20.606c-15.587,13.201-20.618,32.881-21.744,35.197c-1.066-1.13-0.645-3.393-0.645-4.625
			c0.034-0.889-0.331-10.109,0.172-15.037c0.579-2.354,2.295-4.257,4.233-6.037c40.42-47.471,115.349-51.851,135.033-91.843
			c-0.351-1.485-0.962-3.047-2.78-3.247c-1.749,2.082,0.059,4.567,0.947,5.438l-1.646,2.53c-0.207-1.048-1.58-3.551-3.223-3.442
			c-1.266,1.695-0.069,5.784,1.11,6.3c-0.235,0.295-1.59,2.081-1.948,2.373c-0.143-3.012-2.566-4.247-3.352-4.641
			c-2.728,2.667-0.709,6.936,1.004,7.136c-0.53,0.684-2.323,2.205-3.071,2.913c-0.52-3.79-1.804-5.131-3.679-5.633
			c-1.607,2.232-2.088,7.34,0.751,8.126c-1.035,0.786-2.983,2.267-4.218,3.12c0.308-0.426,0.431-6.904-2.658-7.814
			c-3.664,3.173-3.032,8.68-1.424,10.414c0.038,0.039-2.5,1.408-3.384,1.987c0.151-1.355,0.636-7.279-2.317-9.726
			c-3.124,2.103-3.039,10.277-2.092,12.13c-1.308,0.744-2.344,1.263-3.12,1.674c1.19-2.486,0.078-10.111-3.019-11.785
			c-2.716,3.407-4.218,12.119-2.566,14.362c-1.232,0.586-2.527,1.113-3.741,1.733c2.197-8.529,0.186-13.165-1.818-14.882
			c-5.262,4.623-4.799,14.608-3.773,17.326c0.038,0.076-3.198,1.28-3.268,1.375c0.47-1.344,2.815-14.776-2.658-17.932
			c-6.373,6.283-4.335,18.508-3.488,20.495c-1.453,0.572-2.334,1.017-3.857,1.652c1.923-11.799,1.193-19.016-2.187-21.648
			c-4.602,4.109-6.904,14.797-2.973,23.853c0.039,0-5.357,2.284-5.357,2.284c1.938-5.404,4.006-17.869-2.849-25.601
			c-6.535,5.5-7.406,26.423-3.728,28.514c-2.089,0.962-4.363,2.191-6.43,3.17c2.653-4.777,3.65-27.001-2.682-30.192
			c-12.263,10.196-5.419,30.816-4.092,33.617c-2.608,1.369-5.215,2.489-7.133,3.781c5.36-28.273-5.39-33.38-5.39-33.38
			c-12.573,10.751-6.051,38.013-3.998,39.02c-1.755,1.13-6.283,4.306-6.364,4.306c1.73-3.232,1.551-34.319-8.154-34.499
			c-10.6,13.387-3.075,37.264-0.744,41.248c-0.657,0.562-1.577,1.324-2.366,1.955c-1.277-3.657-2.39-6.068-3.373-9.624
			c-1.324-4.974-1.921-9.449-1.797-9.975c-0.193-1.797-0.197-2.419-0.253-3.232c-0.428-8.126,0.761-15.847,3.51-23.197
			c55.713-33.996,99.204,8.206,134.527-47.841C715.723,407.43,718.421,419.179,709.552,417.619L709.552,417.619z"/>
	</g>
	<g>
		<path style="fill-rule:evenodd;clip-rule:evenodd;fill:#FFFFFF;" d="M733.15,399.024c-4.174,0.101-7.483,3.58-7.381,7.753
			c0.101,4.177,3.584,7.487,7.756,7.384c4.174-0.101,7.487-3.582,7.381-7.756C740.805,402.232,737.327,398.919,733.15,399.024
			L733.15,399.024z M740.008,406.426c0.092,3.679-2.826,6.747-6.504,6.837c-3.679,0.092-6.746-2.828-6.837-6.507
			c-0.088-3.678,2.828-6.743,6.506-6.834C736.852,399.831,739.916,402.748,740.008,406.426L740.008,406.426z"/>
	</g>
	<g>
		<path style="fill-rule:evenodd;clip-rule:evenodd;fill:#FFFFFF;" d="M733.023,409.722h-1.032l-2.457-3.998
			c-0.067-0.106-0.292-0.583-0.348-0.695l-0.004,4.693h-0.898l0.004-6.262h1.246l2.201,3.69c0.021,0.048,0.172,0.319,0.386,0.733
			l0.004-4.422h0.898V409.722L733.023,409.722z"/>
	</g>
	<g>
		<polygon style="fill-rule:evenodd;clip-rule:evenodd;fill:#FFFFFF;" points="738.39,409.722 733.763,409.722 733.763,408.838 
			736.975,404.363 733.991,404.359 733.991,403.465 738.298,403.465 738.298,404.363 735.126,408.754 738.39,408.754 
			738.39,409.722 		"/>
	</g>
</g>
</svg>
