<?xml version="1.0" encoding="UTF-8"?>
<svg id="Layer_1" data-name="Layer 1" xmlns="http://www.w3.org/2000/svg" version="1.1" viewBox="0 0 129.08 49.27">
  <defs>
    <style>
      .cls-1 {
        fill: #00275b;
      }

      .cls-1, .cls-2, .cls-3 {
        stroke-width: 0px;
      }

      .cls-2 {
        fill: #fff;
      }

      .cls-3 {
        fill: #bd2036;
      }
    </style>
  </defs>
  <polygon class="cls-2" points="7.57 0 7.57 11.68 8.78 11.68 4.02 24.32 0 24.32 0 36 39 36 39 24.3 34.95 24.3 30.23 11.69 31.42 11.69 31.42 0 7.57 0"/>
  <path class="cls-3" d="M19.49,4.37l8.35,21.66s1.07,2.64,2.81,2.64h-6.08s.31.05.61-.46c.17-.29.03-.73.03-.73l-1.88-4.84h-7.66l-1.88,4.84s-.14.43.03.73c.3.51.61.46.61.46h-6.08c1.74,0,2.81-2.64,2.81-2.64L19.49,4.37Z"/>
  <polygon class="cls-1" points="19.5 4.34 27.03 4.34 27.03 7.35 23.9 7.35 32.13 28.55 34.56 28.55 34.56 31.67 24.37 31.67 24.37 28.64 21.5 28.64 21.5 34.59 37.6 34.59 37.6 25.72 33.98 25.72 28.19 10.28 30.01 10.28 30.01 1.41 19.5 1.41 8.99 1.41 8.99 10.28 10.81 10.28 5.02 25.7 1.4 25.72 1.4 34.59 17.5 34.59 17.5 28.64 14.63 28.64 14.63 31.67 4.44 31.67 4.44 28.55 6.87 28.55 15.1 7.35 11.97 7.35 11.97 4.34 19.5 4.34"/>
  <path class="cls-1" d="M42.25,32.01c.29.29.44.64.44,1.06s-.15.77-.44,1.05c-.29.29-.65.43-1.08.43s-.78-.14-1.08-.43c-.29-.29-.44-.64-.44-1.05s.15-.77.44-1.06c.29-.29.65-.43,1.08-.43s.78.14,1.08.43M42.03,32.19c-.23-.24-.52-.36-.86-.36s-.63.12-.86.36c-.24.24-.35.53-.35.88s.12.64.35.88c.24.24.52.36.86.36s.63-.12.86-.36c.24-.24.35-.53.35-.88s-.12-.64-.35-.88M40.51,32.21h.69c.19,0,.33.04.44.12.11.08.16.2.16.34,0,.16-.05.28-.16.37-.08.07-.18.11-.31.13l.49.75h-.31l-.45-.74h-.29v.74h-.27v-1.72ZM40.78,32.96h.37c.13,0,.22-.02.28-.07.06-.05.09-.12.09-.21,0-.08-.03-.15-.09-.19-.06-.04-.15-.06-.28-.06h-.37v.53Z"/>
  <polygon class="cls-2" points="19.49 20.34 22.43 20.34 19.54 12.74 16.56 20.34 19.49 20.34"/>
  <rect class="cls-1" x="46.7" y="0" width=".7" height="49.27"/>
  <g>
    <path class="cls-1" d="M106.82,37.02c.41-.34.91-.52,1.51-.52,1.25,0,2,.66,2.25,1.98h-4.57c.13-.63.4-1.12.81-1.46M112.44,39.3c0-.56-.1-1.07-.3-1.54-.2-.47-.48-.88-.84-1.22-.36-.34-.79-.61-1.28-.8-.49-.19-1.03-.29-1.6-.29s-1.13.09-1.63.26-.94.43-1.31.76c-.29.26-.54.57-.76.93-.22.36-.39.74-.5,1.14-.12.4-.18.81-.18,1.21,0,.83.21,1.58.63,2.24.42.66,1.02,1.17,1.78,1.54.77.36,1.63.55,2.59.55.28,0,.57-.01.85-.04.28-.03.55-.07.8-.14.25-.06.52-.15.8-.25l.96-1.68c-.32.22-.63.39-.93.53-.3.13-.62.23-.96.3-.34.06-.7.09-1.07.09-.69,0-1.3-.13-1.83-.39s-.94-.64-1.23-1.14c-.29-.5-.45-1.09-.48-1.77h6.5v-.29ZM102.52,36.85c.3,0,.53.02.68.07.15.05.29.13.42.25v-1.6c-.17.07-.51.11-1.04.11h-1.37v-2.63h-.69v.22c0,.99-.22,1.72-.65,2.17-.36.41-.85.66-1.46.77v.64h1.21v3.9c0,.57.02.99.05,1.28.03.28.09.52.18.7.09.18.22.37.41.57.5.52,1.1.78,1.81.78.22,0,.44-.04.64-.11l.92-1.25c-.26.1-.51.15-.74.15-.58,0-1.03-.2-1.36-.61-.13-.16-.21-.35-.25-.57-.04-.22-.06-.58-.06-1.08v-3.75h1.31ZM97.89,43.84c-.22-.18-.38-.33-.46-.44-.08-.11-.14-.26-.17-.44-.03-.18-.04-.47-.04-.87v-6.75c-.21.22-.54.34-1.01.34h-1.24c.22.17.38.31.46.43.08.11.14.27.17.46.03.19.04.48.04.85v3.17c0,.64-.18,1.15-.56,1.53-.37.38-.87.58-1.49.58-.67,0-1.19-.22-1.57-.67-.16-.21-.27-.44-.34-.71-.07-.27-.1-.62-.1-1.05v-4.92c-.21.22-.56.34-1.06.34h-1.2c.23.18.39.32.47.43.08.11.14.25.16.42.03.16.04.46.04.89v3.17c0,1,.17,1.74.5,2.24.26.39.62.7,1.08.92.46.22.98.33,1.57.33.4,0,.73-.04,1-.13.27-.09.52-.22.74-.4.23-.18.5-.47.81-.86v1.15h2.19ZM87.5,36.85c.3,0,.53.02.68.07.15.05.29.13.42.25v-1.6c-.17.07-.51.11-1.04.11h-1.37v-2.63h-.69v.22c0,.99-.22,1.72-.65,2.17-.36.41-.85.66-1.46.77v.64h1.21v3.9c0,.57.02.99.05,1.28.03.28.09.52.18.7.09.18.22.37.41.57.5.52,1.1.78,1.81.78.22,0,.44-.04.64-.11l.92-1.25c-.26.1-.51.15-.74.15-.58,0-1.03-.2-1.36-.61-.12-.16-.21-.35-.25-.57-.04-.22-.07-.58-.07-1.08v-3.75h1.31ZM80.61,32.73c-.22.21-.33.47-.33.77s.1.57.31.79c.21.21.47.32.77.32s.58-.11.79-.32c.21-.22.31-.48.31-.79s-.1-.55-.31-.77c-.21-.21-.46-.32-.76-.32s-.57.11-.79.32M81.17,35.68h-1.23c.23.18.39.32.47.43.08.11.14.25.16.42.03.16.04.46.04.89v4.67c0,.43-.01.72-.04.89-.02.17-.08.31-.16.42-.09.12-.24.26-.47.43h2.93c-.22-.18-.38-.33-.46-.44-.08-.11-.14-.26-.17-.44-.03-.18-.04-.47-.04-.87v-6.75c-.21.22-.55.34-1.03.34M78.09,36.85c.3,0,.53.02.68.07.15.05.29.13.43.25v-1.6c-.17.07-.52.11-1.04.11h-1.37v-2.63h-.69v.22c0,.99-.22,1.72-.65,2.17-.37.41-.85.66-1.46.77v.64h1.21v3.9c0,.57.02.99.05,1.28.03.28.09.52.18.7.09.18.22.37.41.57.5.52,1.1.78,1.81.78.22,0,.44-.04.64-.11l.92-1.25c-.26.1-.51.15-.74.15-.58,0-1.03-.2-1.36-.61-.13-.16-.21-.35-.25-.57-.04-.22-.07-.58-.07-1.08v-3.75h1.31ZM70.72,35.45c-.71,0-1.33.09-1.85.28-.52.19-.92.46-1.2.82-.28.36-.42.78-.42,1.28,0,.38.08.7.24.96.16.27.43.51.81.73.38.22.91.46,1.6.7.92.33,1.49.57,1.69.72.27.19.4.46.4.8s-.18.65-.55.89c-.37.24-.82.36-1.36.36-.38,0-.73-.03-1.07-.1-.34-.07-.68-.18-1.04-.34-.35-.16-.75-.38-1.2-.65l.6,1.74c.48.17.87.29,1.19.35.32.06.72.09,1.19.09.79,0,1.48-.11,2.07-.34.59-.22,1.04-.55,1.36-.97s.48-.9.48-1.45c0-.6-.23-1.11-.69-1.55-.23-.21-.48-.38-.76-.51-.28-.13-.76-.31-1.44-.53-.48-.15-.85-.29-1.12-.41-.27-.12-.46-.25-.58-.38-.12-.14-.18-.29-.18-.46,0-.3.15-.53.45-.72.3-.18.69-.27,1.18-.27.69,0,1.41.23,2.18.69v-1.51c-.54-.16-1.2-.24-1.97-.24M58.67,35.68h-1.14c.23.18.39.32.47.43.08.11.14.25.16.42.03.16.04.46.04.89v4.67c0,.43-.01.72-.04.89-.02.17-.08.31-.16.42-.08.12-.24.26-.47.43h2.93c-.22-.18-.38-.33-.46-.44-.08-.11-.14-.26-.17-.44-.03-.18-.04-.47-.04-.87v-3.57c0-.45.08-.78.24-1.01.17-.24.41-.43.7-.57.3-.14.62-.2.97-.2s.71.07,1.03.21c.32.14.57.32.74.54.14.16.24.38.3.66.06.28.09.65.09,1.12v2.81c0,.38-.01.67-.04.85-.03.19-.08.34-.17.45-.09.12-.24.26-.47.44h2.95c-.31-.25-.5-.46-.57-.63s-.1-.55-.1-1.11v-3c0-.67-.03-1.17-.09-1.51s-.17-.63-.33-.88c-.17-.25-.39-.46-.67-.66-.28-.19-.6-.34-.96-.44-.36-.1-.72-.16-1.08-.16-.52,0-.98.1-1.37.31-.39.2-.81.56-1.24,1.07v-1.47c-.21.22-.55.34-1.04.34M53.8,42.76c-.04.28-.12.5-.23.66-.12.16-.28.3-.5.41h3.35c-.22-.11-.39-.25-.5-.41-.11-.16-.18-.38-.22-.66-.04-.28-.06-.68-.06-1.19v-7.12c0-.51.02-.9.06-1.19.04-.28.12-.51.22-.66.11-.16.28-.29.5-.41h-3.35c.22.11.38.25.5.41.11.16.19.38.23.66.04.28.06.67.06,1.18v7.12c0,.51-.02.9-.06,1.18"/>
    <path class="cls-1" d="M126.14,19.82c-.71,0-1.33.09-1.85.28-.52.19-.92.46-1.2.82-.28.36-.42.78-.42,1.28,0,.38.08.7.24.96.16.26.43.51.81.73.38.22.91.46,1.6.7.92.33,1.49.57,1.69.72.27.19.4.46.4.8s-.18.65-.55.89c-.37.24-.82.36-1.36.36-.38,0-.73-.03-1.07-.1-.34-.07-.68-.18-1.04-.34-.35-.16-.75-.38-1.2-.65l.6,1.74c.47.17.87.29,1.19.35s.72.09,1.19.09c.79,0,1.48-.11,2.06-.33.59-.22,1.04-.55,1.36-.97s.48-.9.48-1.45c0-.6-.23-1.11-.69-1.55-.23-.21-.48-.38-.76-.51-.28-.13-.76-.31-1.44-.53-.48-.15-.85-.29-1.12-.41-.27-.12-.46-.25-.58-.38-.12-.14-.18-.29-.18-.46,0-.3.15-.53.45-.72.3-.18.69-.27,1.18-.27.69,0,1.41.23,2.18.69v-1.5c-.54-.16-1.2-.24-1.97-.24M118.57,19.82c-.76,0-1.44.1-2.02.3-.58.2-1.11.52-1.58.96-.96.88-1.44,1.95-1.44,3.22,0,.59.12,1.14.36,1.66.24.51.58.96,1.01,1.33.44.37.94.66,1.53.86.58.2,1.22.3,1.93.3.96,0,1.71-.11,2.26-.32l1.04-1.73c-.3.19-.59.35-.9.48-.3.13-.6.22-.9.28-.3.06-.6.09-.9.09-.68,0-1.3-.14-1.85-.43-.55-.29-.98-.69-1.3-1.2-.32-.51-.47-1.08-.47-1.7,0-.58.12-1.09.36-1.53.24-.44.59-.79,1.05-1.03.45-.24.97-.36,1.54-.36.88,0,1.62.29,2.21.86v-1.82c-.63-.15-1.28-.22-1.93-.22M110.43,17.11c-.22.21-.33.47-.33.77s.11.57.32.79c.21.22.47.32.77.32s.58-.11.79-.32c.21-.22.32-.48.32-.79,0-.29-.1-.55-.31-.76-.21-.22-.46-.32-.76-.32s-.58.11-.79.32M111,20.06h-1.23c.23.17.39.32.47.43.08.11.14.25.16.42.02.16.04.46.04.89v4.67c0,.42-.01.72-.04.89-.03.17-.08.31-.16.42-.08.11-.24.26-.47.43h2.93c-.22-.18-.38-.33-.46-.44-.09-.11-.14-.26-.17-.44-.03-.18-.04-.47-.04-.87v-6.75c-.21.22-.55.34-1.03.34M95.83,20.06h-1.23c.23.17.39.32.47.43.08.11.14.25.16.42.03.16.04.46.04.89v4.67c0,.42-.01.72-.04.89-.02.17-.08.31-.16.42-.08.11-.24.26-.47.43h2.93c-.22-.16-.37-.3-.46-.42-.09-.12-.15-.27-.17-.45-.03-.18-.04-.47-.04-.87v-3.13c0-.36.02-.63.07-.82.04-.19.12-.37.24-.54.17-.25.4-.44.69-.58.29-.14.62-.2.97-.2.27,0,.54.05.81.16.27.1.49.25.66.43.36.38.54.98.54,1.81v2.88c0,.39-.01.67-.04.86-.03.19-.08.34-.16.45-.08.11-.24.26-.47.43h2.94c-.32-.25-.51-.46-.58-.64-.07-.17-.11-.54-.11-1.1v-3.02c0-.41.01-.69.03-.85.02-.16.07-.32.16-.48.16-.31.41-.55.73-.72.32-.18.67-.27,1.05-.27.68,0,1.2.23,1.58.69.16.21.27.46.34.75.07.29.11.68.11,1.17v2.73c0,.39-.01.67-.04.86-.03.19-.08.34-.17.45-.08.11-.24.26-.48.43h3.07c-.22-.09-.39-.2-.5-.32-.11-.12-.19-.29-.23-.51s-.06-.52-.06-.92v-3.16c0-.57-.03-1.01-.09-1.34-.06-.33-.17-.61-.32-.86-.23-.4-.6-.71-1.09-.94-.49-.23-1.05-.35-1.66-.35-.38,0-.73.05-1.05.16-.32.1-.61.26-.88.48-.27.22-.55.52-.85.92-.33-.54-.71-.93-1.14-1.18-.43-.25-.94-.37-1.55-.37-.56,0-1.04.11-1.44.32-.4.21-.78.57-1.15,1.07v-1.49c-.19.22-.51.34-.95.34M90.54,21.42c.44.28.78.67,1.02,1.17.24.5.36,1.08.36,1.73,0,.58-.12,1.09-.35,1.53-.23.44-.56.78-.98,1.03-.42.25-.9.37-1.42.37-.4,0-.77-.08-1.12-.24-.35-.16-.65-.39-.92-.7-.27-.31-.47-.66-.61-1.07-.14-.41-.21-.84-.21-1.28,0-.57.11-1.08.34-1.53.23-.45.54-.8.95-1.05.41-.25.88-.37,1.41-.37.58,0,1.09.14,1.52.42M88.11,19.93c-.36.07-.7.18-1.02.32-.32.15-.63.33-.92.54-.52.4-.92.9-1.22,1.5-.29.6-.44,1.22-.44,1.88,0,.8.19,1.52.58,2.18.39.65.93,1.17,1.63,1.54.69.37,1.47.56,2.31.56s1.66-.19,2.38-.58c.72-.39,1.29-.92,1.7-1.58.41-.67.62-1.41.62-2.21,0-.59-.12-1.15-.35-1.7-.23-.54-.57-1.02-1.02-1.42-.82-.76-1.84-1.14-3.06-1.14-.44,0-.83.03-1.19.11M76.27,20.06h-1.14c.23.17.39.32.47.43.08.11.14.25.16.42.03.16.04.46.04.89v4.67c0,.42-.01.72-.04.89-.02.17-.08.31-.16.42-.08.11-.24.26-.47.43h2.93c-.22-.18-.38-.33-.46-.44-.08-.11-.14-.26-.17-.44-.03-.18-.04-.47-.04-.87v-3.57c0-.45.08-.78.24-1.01.17-.24.41-.43.7-.56.29-.14.62-.2.97-.2s.71.07,1.03.21c.32.14.57.32.74.54.14.16.24.38.29.66.06.28.09.65.09,1.12v2.81c0,.38-.01.67-.04.85-.03.18-.08.34-.17.45-.09.12-.24.26-.47.44h2.95c-.31-.25-.5-.46-.57-.63-.07-.18-.1-.55-.1-1.11v-3c0-.67-.03-1.17-.09-1.51-.06-.34-.17-.63-.33-.88-.17-.25-.39-.46-.67-.66-.28-.19-.6-.34-.96-.45-.36-.1-.72-.16-1.08-.16-.52,0-.98.1-1.37.31-.39.2-.81.56-1.24,1.07v-1.47c-.21.22-.55.34-1.04.34M68.56,21.39c.41-.34.91-.51,1.51-.51,1.25,0,2,.66,2.25,1.98h-4.57c.13-.63.4-1.12.81-1.46M74.18,23.67c0-.56-.1-1.07-.3-1.54-.2-.47-.48-.88-.84-1.22-.36-.34-.79-.61-1.28-.8-.49-.19-1.03-.29-1.6-.29s-1.13.09-1.63.26c-.5.17-.94.43-1.31.77-.29.26-.54.57-.76.93-.22.36-.39.74-.5,1.14-.12.4-.17.81-.17,1.22,0,.83.21,1.58.63,2.24.42.66,1.02,1.17,1.78,1.54.77.37,1.63.55,2.59.55.28,0,.57-.01.85-.04.28-.03.55-.07.8-.14.25-.06.52-.15.8-.25l.96-1.69c-.32.22-.63.39-.93.53-.3.13-.62.23-.96.29-.34.06-.7.09-1.07.09-.69,0-1.3-.13-1.83-.39-.53-.26-.94-.64-1.23-1.14-.29-.5-.45-1.09-.48-1.77h6.5v-.29ZM61.52,16.35c-.4-.04-.85-.06-1.35-.06-.93,0-1.77.1-2.52.31-.75.2-1.44.52-2.07.94-.87.58-1.54,1.3-2.01,2.16-.47.85-.7,1.78-.7,2.78s.22,1.87.66,2.7c.44.83,1.07,1.52,1.88,2.08,1.22.83,2.78,1.24,4.68,1.24.43,0,.8-.01,1.14-.04.33-.03.68-.07,1.06-.12.37-.06.85-.14,1.42-.25.21-.05.42-.09.62-.11-.07-.21-.11-.51-.11-.9v-3.75c0-.45.04-.8.11-1.04h-2.67c.22.11.39.25.5.41.11.16.18.38.23.66.04.28.06.68.06,1.19v2.35c-.27.1-.65.18-1.13.25-.48.07-.91.1-1.3.1-.94,0-1.8-.23-2.58-.68-.79-.45-1.41-1.06-1.87-1.83-.46-.77-.69-1.6-.69-2.5,0-.67.12-1.29.36-1.87.24-.58.59-1.09,1.04-1.51.45-.42.97-.75,1.57-.97.6-.23,1.25-.34,1.97-.34s1.3.08,1.79.25c.5.17.95.44,1.35.82v-2.02c-.56-.12-1.04-.2-1.45-.24"/>
    <path class="cls-1" d="M108.86,11.68c.09.25.27.45.54.62.21.13.44.22.67.27.23.05.56.09.99.13l.77-1.15c-.49-.02-.84-.11-1.06-.29-.2-.15-.33-.31-.38-.48-.05-.17-.07-.51-.07-1.01v-2.28c0-.65-.02-1.1-.06-1.35-.04-.25-.14-.51-.29-.76-.5-.79-1.49-1.19-2.99-1.19-.43,0-.83.04-1.23.11l-1.17,1.78c.58-.28,1.03-.47,1.37-.56.33-.1.68-.14,1.05-.14.33,0,.62.05.88.14.26.09.46.22.6.4.14.17.21.37.21.59,0,.32-.13.56-.4.72-.26.16-.8.32-1.6.48-1.11.21-1.88.44-2.32.69-.3.16-.54.4-.72.73-.18.33-.27.68-.27,1.04,0,.77.3,1.42.9,1.96.51.46,1.21.69,2.09.69.34,0,.67-.03.97-.11l1.04-1.32c-.5.15-.94.23-1.32.23-.59,0-1.05-.13-1.38-.38-.33-.26-.5-.61-.5-1.06,0-.7.43-1.15,1.28-1.36.64-.15,1.05-.25,1.23-.29.18-.05.35-.1.5-.15.15-.05.33-.13.53-.22v2.28c0,.58.05.99.14,1.24M95.29,4.43h-1.14c.23.17.39.32.47.43.08.12.14.25.16.42.03.16.04.46.04.89v4.67c0,.43-.01.72-.04.89-.02.17-.08.31-.16.42-.09.11-.24.26-.47.43h2.93c-.22-.18-.38-.33-.46-.44-.08-.11-.14-.26-.17-.44-.03-.18-.04-.47-.04-.87v-3.57c0-.45.08-.78.24-1.01.17-.24.41-.43.7-.56.29-.14.62-.21.97-.21s.71.07,1.03.21c.33.14.57.32.74.54.14.16.24.38.29.66.06.28.09.65.09,1.12v2.81c0,.38-.01.67-.04.85-.03.19-.09.34-.17.45-.09.12-.24.26-.47.44h2.95c-.31-.24-.5-.46-.57-.63s-.1-.55-.1-1.11v-3c0-.67-.03-1.17-.09-1.51-.06-.33-.17-.63-.33-.88-.17-.24-.39-.47-.67-.66-.28-.19-.6-.34-.96-.45-.36-.1-.72-.15-1.08-.15-.52,0-.98.1-1.37.31-.39.21-.81.56-1.24,1.07v-1.47c-.21.22-.55.34-1.04.34M90.09,5.8c.44.28.78.67,1.02,1.17.24.5.36,1.08.36,1.73,0,.58-.11,1.09-.35,1.53-.23.44-.56.78-.98,1.03-.42.25-.9.37-1.42.37-.4,0-.77-.08-1.12-.24s-.65-.39-.92-.7c-.27-.31-.47-.66-.61-1.07-.14-.41-.21-.84-.21-1.28,0-.57.11-1.08.34-1.53.23-.45.54-.8.95-1.05.41-.25.88-.37,1.41-.37.58,0,1.09.14,1.53.42M87.66,4.3c-.36.07-.7.18-1.02.32-.32.15-.63.33-.92.54-.52.4-.93.9-1.22,1.5s-.44,1.22-.44,1.88c0,.8.19,1.52.58,2.17.39.65.93,1.17,1.63,1.54.69.37,1.47.56,2.31.56s1.66-.19,2.38-.58c.72-.39,1.29-.91,1.7-1.58.41-.67.62-1.4.62-2.21,0-.59-.12-1.15-.35-1.7-.23-.54-.58-1.01-1.02-1.42-.82-.76-1.84-1.14-3.06-1.14-.44,0-.83.03-1.19.11M83.62,10.68c-.28.16-.56.3-.84.41-.28.11-.57.19-.87.23-.3.04-.67.07-1.1.07-.94,0-1.88-.05-2.8-.14l4.81-6.81h-6.28l-.88,1.78c.33-.23.68-.39,1.05-.48.37-.09.86-.14,1.46-.14.52,0,1.18.04,1.98.12l-5.02,6.89h7.5l.99-1.91ZM72.12,1.48c-.22.21-.33.47-.33.77s.11.57.32.79c.21.22.47.32.77.32s.58-.11.79-.32c.21-.22.32-.48.32-.79,0-.29-.1-.55-.31-.76-.21-.22-.46-.32-.76-.32s-.58.11-.79.32M72.69,4.43h-1.23c.23.17.39.32.47.43.08.12.14.25.16.42.02.16.04.46.04.89v4.67c0,.43-.01.72-.04.89-.03.17-.08.31-.16.42-.08.11-.24.26-.47.43h2.93c-.22-.18-.38-.33-.46-.44-.08-.11-.14-.26-.17-.44s-.04-.47-.04-.87v-6.75c-.21.22-.55.34-1.03.34M68.19,12.15c-.08-.11-.14-.26-.17-.44-.03-.18-.04-.47-.04-.87v-2.91c0-.72.12-1.26.38-1.61.15-.22.36-.4.64-.53.27-.13.57-.19.88-.19.36,0,.64.1.83.29v-1.63c-.25-.04-.45-.06-.61-.06-.46,0-.87.12-1.23.35-.36.23-.66.57-.89,1.01v-1.46c-.21.22-.55.34-1.03.34h-1.23c.23.17.39.32.47.43.08.12.14.25.16.42.03.16.04.46.04.89v4.67c0,.43-.01.72-.04.89-.03.17-.08.31-.16.42-.08.11-.24.26-.47.43h2.93c-.22-.18-.38-.33-.46-.44M56.59,7.06l1.81-4.62,1.79,4.62h-3.6ZM61.68,10.89c.2.51.3.84.3.99,0,.14-.03.24-.1.32-.07.08-.25.21-.53.38h3.67c-.4-.24-.72-.52-.94-.83-.23-.32-.48-.83-.76-1.55l-3.72-9.26h-2.81c.36.17.54.4.54.69,0,.17-.07.44-.21.8l-3.12,7.77c-.29.76-.54,1.28-.73,1.57-.19.28-.5.55-.91.81h3.25c-.24-.13-.41-.25-.5-.36-.09-.11-.14-.25-.14-.42,0-.26.07-.56.2-.91l1.01-2.7h4.47l1.04,2.7Z"/>
  </g>
</svg>