<svg width="1441" height="737" viewBox="0 0 1441 737" fill="none" xmlns="http://www.w3.org/2000/svg">
<g clip-path="url(#clip0_1093_3462)">
<path d="M71.0498 664.41H96.4098C109.9 664.41 118.12 671.11 118.12 682.67C118.12 689.26 113.45 694.54 108.69 696.57C115.99 699 121.27 704.79 121.27 714.73C121.27 727.51 112.65 735.43 98.0398 735.43H71.0498V664.42V664.41ZM96.1998 693.83C104.72 693.83 109.49 690.18 109.49 682.87C109.49 675.56 104.72 672.02 96.1998 672.02H79.6598V693.83H96.1998ZM96.6098 727.61C107.06 727.61 112.44 723.04 112.44 714.62C112.44 706.2 107.06 701.53 96.6098 701.53H79.6698V727.6H96.6098V727.61Z" fill="white"/>
<path d="M188.81 716.25H157.16L149.75 735.42H140.72L169.02 664.41H176.83L205.13 735.42H196.1L188.8 716.25H188.81ZM185.77 708.54L172.99 675.06L160.11 708.54H185.78H185.77Z" fill="white"/>
<path d="M223.99 712.19H232.51C233.42 722.03 239.92 728.42 250.97 728.42C260.81 728.42 267.91 724.67 267.91 716.04C267.91 697.78 226.42 707.82 226.42 682.46C226.42 671.2 236.26 663.59 250.46 663.59C264.66 663.59 274.5 671.81 275.52 684.59H267C266.19 676.58 260 671.4 250.46 671.4C240.92 671.4 235.14 675.66 235.14 682.46C235.14 700.62 276.94 689.36 276.94 716.04C276.94 728.92 265.78 736.23 250.97 736.23C235.04 736.23 224.9 726.69 223.98 712.19H223.99Z" fill="white"/>
<path d="M306.94 664.41H351.37V672.22H315.56V694.84H344.68V702.65H315.56V727.61H352.49V735.42H306.94V664.41Z" fill="white"/>
<path d="M374.5 699.91C374.5 675.36 391.04 663.59 408.69 663.59C424.11 663.59 436.79 673.23 438.72 686.52H429.59C428.37 677.8 419.55 671.4 408.69 671.4C393.88 671.4 383.43 681.44 383.43 699.91C383.43 718.38 393.88 728.42 408.69 728.42C419.75 728.42 428.67 722.03 429.69 713.3H438.62C437.1 726.59 424.42 736.23 408.69 736.23C390.94 736.23 374.5 724.36 374.5 699.91Z" fill="white"/>
<path d="M506.49 716.25H474.84L467.43 735.42H458.4L486.7 664.41H494.51L522.81 735.42H513.78L506.48 716.25H506.49ZM503.44 708.54L490.66 675.06L477.78 708.54H503.45H503.44Z" fill="white"/>
<path d="M546.02 664.41H557.28L580.71 723.76L604.04 664.41H615.3V735.42H606.88V678.81L584.46 735.42H576.85L554.43 678.81V735.42H546.01V664.41H546.02Z" fill="white"/>
<path d="M647.18 664.41H673.86C687.96 664.41 696.48 672.93 696.48 685.41C696.48 697.89 687.96 706.41 673.86 706.41H655.8V735.42H647.18V664.41ZM673.86 698.7C683.9 698.7 687.66 692.41 687.66 685.41C687.66 678.41 683.91 672.12 673.86 672.12H655.8V698.7H673.86Z" fill="white"/>
<path d="M809.15 717.77L810.37 735.42H802.05L800.83 718.28C800.42 711.38 795.96 706.51 789.27 706.51H770V735.42H761.38V664.41H788.26C802.26 664.41 810.88 672.83 810.88 685.21C810.88 693.02 806.42 698.6 799.72 701.75C805.3 704.79 808.65 710.58 809.15 717.78V717.77ZM769.99 698.7H788.25C798.19 698.7 801.95 692.21 801.95 685.21C801.95 678.21 798.2 672.12 788.25 672.12H769.99V698.7Z" fill="white"/>
<path d="M843.14 664.41H887.57V672.22H851.76V694.84H880.88V702.65H851.76V727.61H888.69V735.42H843.14V664.41Z" fill="white"/>
<path d="M912.83 712.19H921.35C922.26 722.03 928.76 728.42 939.81 728.42C949.65 728.42 956.75 724.67 956.75 716.04C956.75 697.78 915.26 707.82 915.26 682.46C915.26 671.2 925.1 663.59 939.3 663.59C953.5 663.59 963.34 671.81 964.36 684.59H955.84C955.03 676.58 948.84 671.4 939.3 671.4C929.76 671.4 923.98 675.66 923.98 682.46C923.98 700.62 965.78 689.36 965.78 716.04C965.78 728.92 954.62 736.23 939.81 736.23C923.88 736.23 913.74 726.69 912.83 712.19Z" fill="white"/>
<path d="M993.28 664.41H1037.71V672.22H1001.9V694.84H1031.02V702.65H1001.9V727.61H1038.83V735.42H993.28V664.41Z" fill="white"/>
<path d="M1108.23 716.25H1076.58L1069.17 735.42H1060.14L1088.44 664.41H1096.25L1124.55 735.42H1115.52L1108.22 716.25H1108.23ZM1105.18 708.54L1092.4 675.06L1079.52 708.54H1105.19H1105.18Z" fill="white"/>
<path d="M1197.84 717.77L1199.06 735.42H1190.74L1189.52 718.28C1189.11 711.38 1184.65 706.51 1177.95 706.51H1158.68V735.42H1150.06V664.41H1176.94C1190.94 664.41 1199.56 672.83 1199.56 685.21C1199.56 693.02 1195.1 698.6 1188.4 701.75C1193.98 704.79 1197.33 710.58 1197.83 717.78L1197.84 717.77ZM1158.68 698.7H1176.94C1186.88 698.7 1190.63 692.21 1190.63 685.21C1190.63 678.21 1186.88 672.12 1176.94 672.12H1158.68V698.7Z" fill="white"/>
<path d="M1222.62 699.91C1222.62 675.36 1239.16 663.59 1256.81 663.59C1272.23 663.59 1284.91 673.23 1286.84 686.52H1277.71C1276.49 677.8 1267.67 671.4 1256.81 671.4C1242 671.4 1231.55 681.44 1231.55 699.91C1231.55 718.38 1242 728.42 1256.81 728.42C1267.87 728.42 1276.79 722.03 1277.81 713.3H1286.74C1285.22 726.59 1272.54 736.23 1256.81 736.23C1239.06 736.23 1222.62 724.36 1222.62 699.91Z" fill="white"/>
<path d="M1368.8 664.41V735.42H1360.18V702.65H1322.54V735.42H1313.92V664.41H1322.54V694.84H1360.18V664.41H1368.8Z" fill="white"/>
<path d="M412.33 400.11C412.33 346.64 379.48 316.84 334.41 307.68V456.64C334.41 470.39 332.12 483.38 328.3 494.84C377.95 485.67 412.33 452.06 412.33 400.11Z" fill="white"/>
<path d="M334.41 245.8C377.95 236.63 406.98 207.6 406.98 161.01C406.98 109.83 368.02 85.38 328.3 79.27C332.12 91.49 334.41 106.77 334.41 123.58V245.81V245.8Z" fill="white"/>
<path d="M71.05 497.13V304.62H303.85C314.55 304.62 324.48 305.38 334.41 307.68V245.8C324.48 248.09 314.55 248.86 303.85 248.86H71.05V76.9699H303.85C311.49 76.9699 319.89 77.7299 328.3 79.2599C315.31 40.2999 282.46 19.6699 225.17 19.6699H0V554.42H225.17C282.46 554.42 315.31 529.97 328.3 494.83C319.13 496.36 309.97 497.12 300.8 497.12H71.05V497.13Z" fill="white"/>
<path d="M969.15 194.4C956.63 143.76 914.53 108.17 861.55 86.3599C874.01 113.63 881.81 154.67 885.7 194.4H969.15Z" fill="white"/>
<path d="M890.37 358.08C888.81 407.94 881.02 452.51 867 484.45C923.09 458.74 963.33 419.24 973.25 358.08H890.37Z" fill="white"/>
<path d="M584.99 482.12C616.56 544.94 655.96 574.1 727.69 574.1C805.28 574.1 840.15 546.95 867.01 484.45C829.62 500.81 783.65 510.16 727.56 510.16C671.47 510.16 624.72 500.81 584.99 482.11V482.12Z" fill="white"/>
<path d="M587.32 88.7002C510.97 122.2 467.15 176.93 467.15 285.41C467.15 385.04 512.53 447.84 584.98 482.12C561.61 435.38 548.81 369.55 548.81 285.41C548.81 201.27 562.39 135.44 587.32 88.7002Z" fill="white"/>
<path d="M861.55 86.36C840.47 29.77 802.34 0 727.55 0C657.69 0 615.05 31.7 587.32 88.7C624.71 72.34 672.24 63.77 727.55 63.77C782.86 63.77 824.93 71.56 861.55 86.36Z" fill="white"/>
<path d="M1439.56 554.42V413.86C1439.56 360.39 1409.29 332.12 1368.8 322.95V554.42H1439.56Z" fill="white"/>
<path d="M1368.8 258.79C1410.82 248.09 1440.61 219.83 1440.61 171.7C1440.61 118.99 1406.23 89.9603 1361.16 80.0303C1366.51 93.0203 1368.8 108.3 1368.8 125.1V258.79Z" fill="white"/>
<path d="M1326.79 263.37H1113.85V76.9702H1326.79C1339.01 76.9702 1350.47 77.7302 1361.17 80.0302C1345.89 41.0702 1308.46 19.6802 1251.16 19.6802H1043.56V554.43H1113.84V319.14H1332.13C1345.88 319.14 1358.1 320.67 1368.8 322.96V258.79C1355.81 261.85 1341.3 263.37 1326.78 263.37H1326.79Z" fill="white"/>
</g>
<defs>
<clipPath id="clip0_1093_3462">
<rect width="1440.61" height="736.23" fill="white"/>
</clipPath>
</defs>
</svg>
