<svg width="70" height="70" viewBox="0 0 70 70" fill="none" xmlns="http://www.w3.org/2000/svg">
<g clip-path="url(#clip0_355_683)">
<path fill-rule="evenodd" clip-rule="evenodd" d="M18.0972 21.9319C23.339 21.9319 28.0584 24.1462 31.3633 27.6836L31.1897 27.9021C29.3714 30.1898 28.1116 32.8223 27.4757 35.6188C25.9255 32.2811 22.6172 29.8654 18.6282 29.6657C12.7591 29.3088 7.79055 34.0737 7.77164 39.8766C7.8232 45.7427 4.83966 51.3236 0.00858351 54.6681C0.0223326 50.8063 0.0549866 46.9429 0.0549866 43.0862L0.00170898 39.9091C0.00170898 29.9815 8.10334 21.9336 18.0989 21.9336" fill="#0392CE"/>
<path fill-rule="evenodd" clip-rule="evenodd" d="M33.0569 27.4343L40.0036 15.482C42.939 10.49 48.2651 7.22069 54.0551 6.73071C51.5958 10.9271 49.1037 15.0944 46.7303 19.3386L37.1747 35.781C36.5509 32.9248 35.2808 30.2325 33.4264 27.9004L33.0569 27.4343Z" fill="#FD5409"/>
<path fill-rule="evenodd" clip-rule="evenodd" d="M32.3068 28.7761C29.8784 31.8321 28.4279 35.6887 28.4227 39.8834V39.9278C28.4244 41.9321 28.7579 43.8595 29.3697 45.659L29.3783 45.6829C29.4161 45.7955 29.4556 45.9065 29.4969 46.0175C29.5244 46.0909 29.5519 46.166 29.5794 46.2394L29.5862 46.2599C30.8735 49.618 33.1696 52.5767 36.1858 54.6646V54.6441V54.4836V54.4137V54.3027V54.1815V54.1217V53.951V53.9407V53.7598V53.7188V53.5771V53.4866V53.2544V53.2135V53.0325V53.0223V52.8515V52.7918V52.6706V52.5596V52.4896V52.3291V52.1277V52.0969V51.9467V51.8665V51.7657V51.636V51.4038L36.1841 51.2228V51.1733V51.0419V50.9411V50.8609V50.7107V50.6799V50.499V50.4785V50.318V50.248V50.137V50.0158V49.9561V49.7853V49.5941V49.5532V49.4132V49.3227V49.2322V49.0922V48.8703V48.86V48.6893V48.6295V48.5083V48.3974V48.3274V48.1669V47.9654V47.9347V47.7845V47.7042V47.6035V47.4737V47.2416V47.0606V47.0111V46.8796V46.7789V46.6987V46.5484V46.5177V46.3367V46.3162V46.1558V46.0858V45.9748V45.8536V45.6231V45.6129V45.4319V45.3909V45.2509V45.1604V45.07V44.9283V44.708V44.6978V44.5271V44.4673V44.2368V44.1668V44.0064V43.9859V43.6239V43.5437V43.3132V43.2637V43.0827L36.2373 39.9056C36.2373 35.7024 34.7851 31.8372 32.3515 28.7761" fill="#4002A5"/>
<path fill-rule="evenodd" clip-rule="evenodd" d="M41.6928 30.8368C43.133 30.0788 44.776 29.6503 46.5205 29.6503C52.2263 29.6503 56.846 34.2393 56.846 39.9074C56.846 45.5754 52.2246 50.1644 46.5205 50.1644C42.6931 50.1644 39.352 48.097 37.5698 45.0256V45.6198L37.6128 54.6544L37.6197 55.561C40.2475 57.0394 43.2843 57.8828 46.5205 57.8828C56.5143 57.8828 64.6159 49.8349 64.6159 39.9056C64.6159 29.9764 56.6999 22.118 46.8659 21.9336L41.6928 30.8351V30.8368Z" fill="#8802B1"/>
</g>
<defs>
<clipPath id="clip0_355_683">
<rect width="64.6154" height="51.1538" fill="white" transform="translate(0 6.73071)"/>
</clipPath>
</defs>
</svg>
